<?xml version="1.0" encoding="utf-8"?>
<!-- Generator: Adobe Illustrator 19.0.0, SVG Export Plug-In . SVG Version: 6.00 Build 0)  -->
<svg version="1.1" id="Layer_1" xmlns="http://www.w3.org/2000/svg" xmlns:xlink="http://www.w3.org/1999/xlink" x="0px" y="0px"
	 viewBox="0 0 228.8 228.8" style="enable-background:new 0 0 228.8 228.8;" xml:space="preserve">
<style type="text/css">
	.st0{fill:#5cc2ad;}
</style>
<g>
	<path class="st0" d="M134.7,114.3l20.2-20.2c2.8-2.8,2.8-7.3,0-10.1l-10.1-10.1c-2.8-2.8-7.3-2.8-10.1,0l-20.2,20.2L94.2,73.9
		c-2.8-2.8-7.3-2.8-10.1,0L74,84c-2.8,2.8-2.8,7.3,0,10.1l20.2,20.2L74,134.5c-2.8,2.8-2.8,7.3,0,10.1l10.1,10.1
		c2.8,2.8,7.3,2.8,10.1,0l20.2-20.2l20.3,20.3c2.8,2.8,7.3,2.8,10.1,0l10.1-10.1c2.8-2.8,2.8-7.3,0-10.1L134.7,114.3z M114.4,0
		C51.2,0,0,51.2,0,114.4c0,63.2,51.2,114.4,114.4,114.4s114.4-51.2,114.4-114.4C228.8,51.2,177.6,0,114.4,0L114.4,0z M114.4,207.4
		c-51.3,0-93-41.6-93-93c0-51.3,41.6-93,93-93s93,41.6,93,93C207.4,165.8,165.8,207.4,114.4,207.4L114.4,207.4z M114.4,207.4"/>
</g>
</svg>
