<?xml version="1.0" encoding="utf-8"?>
<!-- Generator: Adobe Illustrator 19.0.0, SVG Export Plug-In . SVG Version: 6.00 Build 0)  -->
<svg version="1.1" id="Layer_1" xmlns="http://www.w3.org/2000/svg" xmlns:xlink="http://www.w3.org/1999/xlink" x="0px" y="0px"
	 viewBox="0 0 6.3 7.2" style="enable-background:new 0 0 6.3 7.2;" xml:space="preserve">
<style type="text/css">
	.st0{fill:#e7e7e7;}
</style>
<path class="st0" d="M4.1,6.3c0,0.5-0.4,0.9-0.9,0.9c-0.5,0-0.9-0.4-0.9-0.9H4.1z"/>
<path class="st0" d="M5.9,4.9C5.4,4.6,5.4,3,5.3,2.1C5.2,1.4,4.6,1,4.1,0.9h0v0C4.1,0.4,3.7,0,3.2,0h0C2.6,0,2.3,0.4,2.3,0.9v0h0
	C1.7,1,1.1,1.4,1,2.1C0.9,3,0.9,4.6,0.4,4.9C0.2,5,0,5.3,0,5.5v0.3h1.8h0.5h0.9h0.9h0.4h1.8V5.5C6.3,5.3,6.1,5,5.9,4.9z"/>
</svg>
