<?xml version="1.0" encoding="utf-8"?>
<!-- Generator: Adobe Illustrator 19.0.0, SVG Export Plug-In . SVG Version: 6.00 Build 0)  -->
<svg version="1.1" id="Layer_1" xmlns="http://www.w3.org/2000/svg" xmlns:xlink="http://www.w3.org/1999/xlink" x="0px" y="0px"
	 viewBox="0 0 12.2 12.2" style="enable-background:new 0 0 12.2 12.2;" xml:space="preserve">
<style type="text/css">
	.st0{fill:#61cfb2;}
</style>
<path class="st0" d="M3.6,5L2.8,5.8l2.8,2.8l6.1-6.1l-0.9-0.9L5.5,6.9L3.6,5z M11,6.1C11,8.8,8.8,11,6.1,11c-2.7,0-4.9-2.2-4.9-4.9
	s2.2-4.9,4.9-4.9c0.5,0,0.9,0.1,1.3,0.2l1-1C7.7,0.2,6.9,0,6.1,0C2.8,0,0,2.8,0,6.1s2.8,6.1,6.1,6.1c3.4,0,6.1-2.8,6.1-6.1H11z"/>
</svg>
