<?xml version="1.0" encoding="utf-8"?>
<!-- Generator: Adobe Illustrator 19.0.0, SVG Export Plug-In . SVG Version: 6.00 Build 0)  -->
<svg version="1.1" id="Layer_1" xmlns="http://www.w3.org/2000/svg" xmlns:xlink="http://www.w3.org/1999/xlink" x="0px" y="0px"
	 viewBox="0 0 228.8 228.8" style="enable-background:new 0 0 228.8 228.8;" xml:space="preserve">
<style type="text/css">
	.st0{fill:#6f96d4;}
</style>
<g>
	<path class="st0" d="M128.8,128.7l28.6,0c4,0,7.2-3.2,7.2-7.2l0-14.3c0-3.9-3.2-7.1-7.2-7.2l-28.6,0l0-28.6c0-4-3.2-7.2-7.2-7.2
		l-14.3,0c-3.9,0-7.2,3.2-7.1,7.2l0,28.6l-28.5,0c-4,0-7.1,3.2-7.2,7.2l0,14.3c0,3.9,3.2,7.2,7.2,7.2l28.5,0l0,28.7
		c0,4,3.2,7.2,7.2,7.2l14.3,0c4,0,7.2-3.2,7.2-7.2L128.8,128.7z M195.3,33.5c-44.7-44.7-117.1-44.7-161.8,0
		c-44.7,44.7-44.7,117.1,0,161.8s117.1,44.7,161.8,0C240,150.6,240,78.2,195.3,33.5L195.3,33.5z M48.7,180.2
		c-36.3-36.3-36.3-95.2,0-131.5c36.3-36.3,95.2-36.3,131.5,0s36.3,95.2,0,131.5C143.9,216.5,85,216.5,48.7,180.2L48.7,180.2z
		 M48.7,180.2"/>
</g>
</svg>
