<?xml version="1.0" encoding="utf-8"?>
<!-- Generator: Adobe Illustrator 19.0.0, SVG Export Plug-In . SVG Version: 6.00 Build 0)  -->
<svg version="1.1" id="Layer_1" xmlns="http://www.w3.org/2000/svg" xmlns:xlink="http://www.w3.org/1999/xlink" x="0px" y="0px"
	 viewBox="0 0 4.7 4.7" style="enable-background:new 0 0 4.7 4.7;" xml:space="preserve">
<style type="text/css">
	.st0{fill:#e7e7e7;}
</style>
<path class="st0" d="M2.5,4.4V3.8c0.9,0,1.6-0.7,1.6-1.6c0-0.9-0.7-1.6-1.6-1.6V0c1.2,0,2.2,1,2.2,2.2C4.7,3.4,3.7,4.4,2.5,4.4z"/>
<path class="st0" d="M1.7,4.2c-0.8-0.3-1.4-1.1-1.4-2c0-0.7,0.3-1.4,0.9-1.8l0.3,0.4C1.2,1.2,0.9,1.7,0.9,2.2c0,0.7,0.4,1.3,1,1.5
	L1.7,4.2z"/>
<path class="st0" d="M1.9,0.3L0,0.3l1.9,1.9V0.3z"/>
<path class="st0" d="M2.5,4.7l1.9,0L2.5,2.8V4.7z"/>
</svg>
