<?xml version="1.0" encoding="utf-8"?>
<!-- Generator: Adobe Illustrator 19.0.0, SVG Export Plug-In . SVG Version: 6.00 Build 0)  -->
<svg version="1.1" id="Layer_1" xmlns="http://www.w3.org/2000/svg" xmlns:xlink="http://www.w3.org/1999/xlink" x="0px" y="0px"
	 viewBox="0 0 6.7 6.7" style="enable-background:new 0 0 6.7 6.7;" xml:space="preserve">
<style type="text/css">
	.st0{fill:#e7e7e7;}
</style>
<path class="st0" d="M2.5,5C1.1,5,0,3.9,0,2.5C0,1.1,1.1,0,2.5,0S5,1.1,5,2.5C5,3.9,3.9,5,2.5,5z M2.5,0.6c-1.1,0-1.9,0.9-1.9,2
	c0,1.1,0.9,2,1.9,2c1.1,0,1.9-0.9,1.9-2C4.5,1.4,3.6,0.6,2.5,0.6z"/>
<path class="st0" d="M6.4,6.7c-0.1,0-0.1,0-0.2-0.1L3.9,4.3C3.8,4.2,3.8,4,3.9,3.9c0.1-0.1,0.3-0.1,0.4,0l2.3,2.3
	c0.1,0.1,0.1,0.3,0,0.4C6.5,6.7,6.5,6.7,6.4,6.7z"/>
</svg>
