<?xml version="1.0" encoding="utf-8"?>
<!-- Generator: Adobe Illustrator 19.0.0, SVG Export Plug-In . SVG Version: 6.00 Build 0)  -->
<svg version="1.1" id="Layer_1" xmlns="http://www.w3.org/2000/svg" xmlns:xlink="http://www.w3.org/1999/xlink" x="0px" y="0px"
	 viewBox="0 0 7.1 7.1" style="enable-background:new 0 0 7.1 7.1;" xml:space="preserve">
<style type="text/css">
	.st0{fill:#12ffcd;}
</style>
<path class="st0" d="M6.9,3.1L6.1,3C6.1,2.7,5.9,2.4,5.8,2.1l0.5-0.6c0.1-0.1,0.1-0.2,0-0.3L5.9,0.9c-0.1-0.1-0.2-0.1-0.3,0L5,1.3
	C4.7,1.1,4.4,1,4.1,0.9L4,0.2C4,0.1,3.9,0,3.8,0H3.3C3.2,0,3.1,0.1,3.1,0.2L3,0.9C2.7,1,2.4,1.1,2.1,1.3L1.5,0.8
	c-0.1-0.1-0.2-0.1-0.3,0L0.9,1.2c-0.1,0.1-0.1,0.2,0,0.3l0.5,0.6C1.1,2.4,1,2.7,0.9,3L0.2,3.1C0.1,3.1,0,3.2,0,3.3v0.5
	C0,3.9,0.1,4,0.2,4l0.8,0.1C1,4.4,1.1,4.7,1.3,5L0.8,5.6c-0.1,0.1-0.1,0.2,0,0.3l0.4,0.3c0.1,0.1,0.2,0.1,0.3,0l0.6-0.5
	C2.4,5.9,2.7,6.1,3,6.1l0.1,0.8c0,0.1,0.1,0.2,0.2,0.2h0.5C3.9,7.1,4,7,4,6.9l0.1-0.8C4.4,6.1,4.7,5.9,5,5.8l0.6,0.5
	c0.1,0.1,0.2,0.1,0.3,0l0.4-0.3c0.1-0.1,0.1-0.2,0-0.3L5.8,5c0.2-0.3,0.3-0.6,0.4-0.9L6.9,4C7,4,7.1,3.9,7.1,3.8V3.3
	C7.1,3.2,7,3.1,6.9,3.1z M3.5,4.4C3.1,4.4,2.7,4,2.7,3.5c0-0.5,0.4-0.9,0.9-0.9s0.9,0.4,0.9,0.9C4.4,4,4,4.4,3.5,4.4z"/>
</svg>
