<?xml version="1.0" encoding="utf-8"?>
<!-- Generator: Adobe Illustrator 19.0.0, SVG Export Plug-In . SVG Version: 6.00 Build 0)  -->
<svg version="1.1" id="Layer_1" xmlns="http://www.w3.org/2000/svg" xmlns:xlink="http://www.w3.org/1999/xlink" x="0px" y="0px"
	 viewBox="0 0 8.4 1.9" style="enable-background:new 0 0 8.4 1.9;" xml:space="preserve">
<style type="text/css">
	.st0{fill:#e7e7e7;}
</style>
<path class="st0" d="M0.9,0c0.5,0,0.9,0.4,0.9,0.9S1.4,1.9,0.9,1.9C0.4,1.9,0,1.5,0,0.9S0.4,0,0.9,0z"/>
<path class="st0" d="M4.2,0c0.5,0,0.9,0.4,0.9,0.9S4.7,1.9,4.2,1.9S3.3,1.5,3.3,0.9S3.7,0,4.2,0z"/>
<path class="st0" d="M7.5,0C8,0,8.4,0.4,8.4,0.9S8,1.9,7.5,1.9S6.6,1.5,6.6,0.9S7,0,7.5,0z"/>
</svg>
