<svg xmlns="http://www.w3.org/2000/svg" xmlns:xlink="http://www.w3.org/1999/xlink" preserveAspectRatio="xMidYMid" width="30" height="29" viewBox="0 0 30 29">
  <defs>
    <style>
      .cls-1 {
        fill: #e7e7e7;
        fill-rule: evenodd;
      }
    </style>
  </defs>
  <path d="M28.268,21.130 L25.242,21.130 L25.242,19.371 L28.268,19.371 L28.268,4.435 L7.426,4.435 L7.426,6.874 L5.689,6.874 L5.689,1.774 C5.689,0.800 6.464,0.014 7.426,0.014 L28.268,0.014 C29.225,0.014 30.007,0.800 30.007,1.774 L30.007,19.371 C30.007,20.340 29.225,21.130 28.268,21.130 ZM8.728,1.338 C8.247,1.338 7.862,1.726 7.862,2.217 C7.862,2.704 8.247,3.095 8.728,3.095 C9.205,3.095 9.596,2.704 9.596,2.217 C9.596,1.725 9.206,1.338 8.728,1.338 ZM11.333,1.338 C10.850,1.338 10.465,1.726 10.465,2.217 C10.465,2.704 10.851,3.095 11.333,3.095 C11.813,3.095 12.202,2.704 12.203,2.217 C12.203,1.725 11.814,1.338 11.333,1.338 ZM13.996,1.338 C13.512,1.338 13.121,1.726 13.121,2.217 C13.121,2.704 13.513,3.095 13.996,3.095 C14.469,3.095 14.857,2.704 14.857,2.217 C14.857,1.725 14.469,1.338 13.996,1.338 ZM28.268,1.790 L16.109,1.790 L16.109,2.672 L28.268,2.672 L28.268,1.790 ZM24.313,9.626 L24.313,27.226 C24.313,28.195 23.531,28.986 22.576,28.986 L1.737,28.986 C0.773,28.986 -0.007,28.195 -0.007,27.226 L-0.007,9.626 C-0.007,8.655 0.773,7.869 1.737,7.869 L22.576,7.869 C23.531,7.869 24.313,8.655 24.313,9.626 ZM1.737,27.226 L22.576,27.226 L22.576,12.290 L1.737,12.290 L1.737,27.226 ZM3.031,9.190 C2.556,9.190 2.168,9.583 2.168,10.070 C2.168,10.556 2.556,10.950 3.031,10.950 C3.514,10.950 3.902,10.556 3.902,10.070 C3.902,9.583 3.513,9.190 3.031,9.190 ZM5.644,9.190 C5.160,9.190 4.771,9.583 4.771,10.070 C4.771,10.556 5.161,10.950 5.644,10.950 C6.120,10.950 6.509,10.556 6.509,10.070 C6.509,9.583 6.120,9.190 5.644,9.190 ZM8.297,9.190 C7.821,9.190 7.432,9.583 7.432,10.070 C7.432,10.556 7.820,10.950 8.297,10.950 C8.779,10.950 9.164,10.556 9.164,10.070 C9.164,9.583 8.779,9.190 8.297,9.190 ZM10.419,10.529 L22.576,10.529 L22.577,10.529 L22.577,9.648 L10.419,9.648 L10.419,10.529 Z" class="cls-1"/>
</svg>
