<svg xmlns="http://www.w3.org/2000/svg" xmlns:xlink="http://www.w3.org/1999/xlink" preserveAspectRatio="xMidYMid" width="17" height="17" viewBox="0 0 17 17">
  <defs>
    <style>
      .cls-1 {
        fill: #61cfb2;
        fill-rule: evenodd;
      }
    </style>
  </defs>
  <path d="M5.015,6.885 L3.825,8.075 L7.650,11.900 L16.150,3.400 L14.960,2.210 L7.650,9.520 L5.015,6.885 ZM15.300,8.500 C15.300,12.240 12.240,15.300 8.500,15.300 C4.760,15.300 1.700,12.240 1.700,8.500 C1.700,4.760 4.760,1.700 8.500,1.700 C9.180,1.700 9.775,1.785 10.370,1.955 L11.730,0.595 C10.710,0.255 9.605,-0.000 8.500,-0.000 C3.825,-0.000 -0.000,3.825 -0.000,8.500 C-0.000,13.175 3.825,17.000 8.500,17.000 C13.175,17.000 17.000,13.175 17.000,8.500 L15.300,8.500 Z" class="cls-1"/>
</svg>
