<svg xmlns="http://www.w3.org/2000/svg" xmlns:xlink="http://www.w3.org/1999/xlink" preserveAspectRatio="xMidYMid" width="32" height="32" viewBox="0 0 32 32">
  <defs>
    <style>
      .cls-1 {
        fill: #e7e7e7;
        fill-rule: evenodd;
      }
    </style>
  </defs>
  <path d="M31.034,9.951 C30.787,9.988 30.533,10.024 30.278,10.058 C30.149,10.486 29.976,10.902 29.764,11.296 C29.920,11.501 30.075,11.706 30.224,11.907 C30.555,12.355 30.507,12.990 30.113,13.384 L29.125,14.372 C28.730,14.766 28.096,14.814 27.648,14.483 C27.446,14.333 27.241,14.179 27.037,14.023 C26.643,14.236 26.227,14.408 25.799,14.537 C25.764,14.792 25.728,15.046 25.692,15.293 C25.609,15.844 25.127,16.259 24.569,16.259 L23.172,16.259 C22.614,16.259 22.131,15.844 22.049,15.294 C22.012,15.046 21.976,14.792 21.942,14.537 C21.514,14.408 21.098,14.236 20.703,14.023 C20.499,14.179 20.294,14.334 20.092,14.483 C19.645,14.814 19.010,14.766 18.616,14.372 L17.628,13.384 C17.234,12.990 17.186,12.355 17.517,11.907 C17.666,11.706 17.820,11.501 17.976,11.296 C17.764,10.902 17.592,10.486 17.463,10.058 C17.207,10.024 16.953,9.988 16.706,9.951 C16.156,9.868 15.741,9.386 15.741,8.828 L15.741,7.431 C15.741,6.873 16.156,6.391 16.706,6.308 C16.953,6.271 17.207,6.235 17.463,6.201 C17.592,5.773 17.764,5.357 17.976,4.963 C17.820,4.758 17.666,4.553 17.517,4.351 C17.186,3.904 17.234,3.269 17.628,2.875 L18.616,1.887 C19.010,1.493 19.645,1.445 20.092,1.776 C20.294,1.925 20.500,2.080 20.704,2.236 C21.098,2.023 21.514,1.851 21.942,1.722 C21.976,1.466 22.012,1.212 22.049,0.965 C22.131,0.415 22.614,-0.000 23.172,-0.000 L24.569,-0.000 C25.127,-0.000 25.609,0.415 25.692,0.965 C25.728,1.213 25.764,1.466 25.799,1.722 C26.227,1.851 26.643,2.023 27.037,2.236 C27.241,2.080 27.446,1.926 27.648,1.776 C28.096,1.445 28.730,1.493 29.125,1.887 L30.113,2.875 C30.507,3.269 30.555,3.904 30.224,4.351 C30.075,4.553 29.921,4.758 29.764,4.963 C29.977,5.357 30.149,5.773 30.278,6.201 C30.533,6.235 30.787,6.271 31.035,6.308 C31.585,6.391 32.000,6.873 32.000,7.431 L32.000,8.828 C32.000,9.386 31.585,9.868 31.034,9.951 ZM30.639,7.626 C30.415,7.593 30.186,7.561 29.956,7.531 C29.501,7.472 29.129,7.150 29.008,6.710 C28.892,6.289 28.724,5.882 28.507,5.502 C28.282,5.105 28.317,4.613 28.596,4.250 C28.737,4.066 28.877,3.882 29.013,3.700 L28.300,2.987 C28.117,3.123 27.933,3.263 27.750,3.404 C27.387,3.683 26.895,3.718 26.498,3.492 C26.118,3.276 25.711,3.108 25.290,2.992 C24.850,2.871 24.528,2.498 24.468,2.044 C24.439,1.814 24.407,1.585 24.374,1.361 L23.366,1.361 C23.334,1.585 23.302,1.814 23.272,2.044 C23.213,2.498 22.890,2.871 22.450,2.992 C22.029,3.108 21.623,3.276 21.242,3.492 C20.845,3.718 20.354,3.683 19.990,3.404 C19.808,3.263 19.623,3.123 19.440,2.987 L18.728,3.700 C18.864,3.882 19.003,4.066 19.144,4.250 C19.424,4.613 19.459,5.104 19.233,5.502 C19.017,5.882 18.849,6.288 18.732,6.709 C18.611,7.149 18.239,7.472 17.785,7.531 C17.555,7.561 17.326,7.593 17.101,7.625 L17.101,8.633 C17.326,8.666 17.555,8.698 17.785,8.728 C18.239,8.787 18.611,9.109 18.733,9.549 C18.849,9.970 19.017,10.377 19.233,10.757 C19.459,11.154 19.424,11.646 19.145,12.009 C19.003,12.193 18.864,12.377 18.728,12.559 L19.440,13.272 C19.623,13.136 19.808,12.996 19.991,12.855 C20.354,12.576 20.845,12.541 21.242,12.767 C21.623,12.983 22.029,13.151 22.450,13.267 C22.890,13.388 23.213,13.761 23.272,14.215 C23.302,14.445 23.334,14.674 23.366,14.898 L24.374,14.898 C24.407,14.674 24.439,14.445 24.468,14.215 C24.528,13.761 24.850,13.388 25.290,13.267 C25.711,13.151 26.118,12.983 26.498,12.767 C26.895,12.541 27.387,12.576 27.750,12.855 C27.933,12.996 28.117,13.136 28.300,13.272 L29.013,12.559 C28.877,12.377 28.737,12.193 28.596,12.009 C28.317,11.646 28.282,11.155 28.507,10.757 C28.724,10.377 28.892,9.971 29.008,9.549 C29.129,9.110 29.501,8.787 29.956,8.728 C30.186,8.698 30.415,8.666 30.639,8.634 L30.639,7.626 ZM23.870,11.029 C22.271,11.029 20.970,9.729 20.970,8.129 C20.970,6.530 22.271,5.229 23.870,5.229 C25.470,5.229 26.770,6.530 26.770,8.129 C26.770,9.729 25.470,11.029 23.870,11.029 ZM23.870,6.518 C22.982,6.518 22.259,7.241 22.259,8.129 C22.259,9.018 22.982,9.740 23.870,9.740 C24.759,9.740 25.481,9.018 25.481,8.129 C25.481,7.241 24.759,6.518 23.870,6.518 ZM16.474,13.198 C16.380,13.578 16.279,13.966 16.176,14.352 C16.722,14.784 17.217,15.278 17.648,15.824 C18.035,15.721 18.422,15.620 18.802,15.526 C19.440,15.367 20.111,15.706 20.364,16.315 L21.099,18.091 C21.099,18.091 21.099,18.091 21.099,18.091 C21.352,18.700 21.117,19.415 20.553,19.754 C20.218,19.955 19.873,20.158 19.526,20.358 C19.607,21.049 19.607,21.749 19.526,22.440 C19.871,22.640 20.217,22.843 20.553,23.045 C21.117,23.384 21.351,24.099 21.099,24.708 L20.364,26.484 C20.111,27.093 19.440,27.432 18.802,27.273 C18.422,27.179 18.034,27.078 17.648,26.975 C17.216,27.521 16.721,28.016 16.176,28.447 C16.280,28.836 16.380,29.224 16.474,29.601 C16.633,30.239 16.294,30.910 15.685,31.163 L13.909,31.898 C13.300,32.151 12.585,31.916 12.246,31.352 C12.044,31.015 11.841,30.670 11.642,30.325 C10.951,30.406 10.251,30.406 9.560,30.325 C9.359,30.673 9.155,31.019 8.955,31.352 C8.708,31.763 8.261,31.999 7.801,31.999 C7.630,31.999 7.457,31.966 7.292,31.898 L5.516,31.162 C4.907,30.910 4.568,30.239 4.727,29.600 C4.821,29.221 4.922,28.833 5.025,28.447 C4.479,28.015 3.984,27.520 3.553,26.975 C3.166,27.078 2.778,27.179 2.399,27.273 C1.761,27.432 1.090,27.093 0.837,26.484 L0.102,24.708 C-0.151,24.099 0.084,23.384 0.648,23.045 C0.983,22.843 1.329,22.640 1.675,22.441 C1.594,21.750 1.594,21.050 1.675,20.358 C1.329,20.159 0.984,19.956 0.648,19.754 C0.084,19.415 -0.150,18.700 0.102,18.091 L0.837,16.315 C1.089,15.706 1.761,15.366 2.399,15.526 C2.778,15.620 3.166,15.720 3.553,15.824 C3.985,15.278 4.479,14.783 5.025,14.352 C4.922,13.966 4.821,13.579 4.727,13.198 C4.568,12.560 4.907,11.889 5.516,11.636 L7.292,10.901 C7.901,10.648 8.616,10.883 8.955,11.447 C9.156,11.781 9.359,12.127 9.559,12.474 C10.250,12.393 10.950,12.393 11.641,12.474 C11.841,12.128 12.044,11.783 12.246,11.447 C12.585,10.883 13.300,10.648 13.909,10.901 L15.685,11.636 C16.294,11.889 16.633,12.560 16.474,13.198 ZM15.246,15.444 C14.820,15.112 14.636,14.559 14.777,14.036 C14.877,13.666 14.973,13.294 15.065,12.930 L13.432,12.254 C13.239,12.576 13.044,12.908 12.853,13.239 C12.583,13.709 12.062,13.969 11.526,13.903 C10.911,13.826 10.287,13.826 9.673,13.902 C9.138,13.969 8.618,13.709 8.347,13.239 C8.156,12.906 7.961,12.575 7.768,12.254 L6.136,12.930 C6.227,13.295 6.324,13.667 6.423,14.036 C6.564,14.559 6.380,15.111 5.955,15.443 C5.466,15.823 5.026,16.264 4.645,16.753 C4.313,17.179 3.760,17.363 3.237,17.222 C2.866,17.123 2.495,17.026 2.131,16.935 L1.455,18.567 C1.778,18.761 2.109,18.955 2.440,19.146 C2.910,19.417 3.171,19.938 3.104,20.473 C3.027,21.089 3.027,21.712 3.104,22.327 C3.170,22.862 2.910,23.382 2.440,23.653 C2.108,23.844 1.777,24.038 1.455,24.231 L2.131,25.864 C2.495,25.773 2.867,25.676 3.237,25.576 C3.760,25.436 4.312,25.619 4.644,26.045 C5.024,26.533 5.465,26.974 5.954,27.355 C6.380,27.687 6.565,28.239 6.424,28.763 C6.324,29.133 6.227,29.505 6.136,29.869 L7.769,30.545 C7.961,30.224 8.155,29.893 8.347,29.559 C8.618,29.090 9.138,28.829 9.674,28.896 C10.290,28.973 10.913,28.973 11.528,28.896 C12.063,28.830 12.583,29.090 12.854,29.560 C13.044,29.890 13.238,30.221 13.432,30.545 L15.065,29.869 C14.974,29.507 14.878,29.135 14.777,28.763 C14.637,28.240 14.820,27.688 15.246,27.356 C15.734,26.976 16.175,26.535 16.556,26.045 C16.888,25.620 17.440,25.435 17.964,25.576 C18.333,25.676 18.705,25.773 19.070,25.864 L19.746,24.231 C19.423,24.037 19.091,23.843 18.760,23.652 C18.291,23.382 18.030,22.861 18.097,22.325 C18.173,21.710 18.174,21.086 18.097,20.472 C18.031,19.937 18.291,19.416 18.761,19.146 C19.093,18.955 19.424,18.760 19.746,18.567 L19.070,16.935 C18.706,17.026 18.334,17.123 17.964,17.222 C17.440,17.363 16.888,17.179 16.557,16.754 C16.177,16.265 15.736,15.824 15.246,15.444 ZM12.469,25.909 C11.866,26.159 11.233,26.284 10.600,26.284 C9.968,26.284 9.335,26.159 8.732,25.909 C7.528,25.410 6.590,24.472 6.091,23.267 C5.060,20.781 6.246,17.920 8.732,16.889 C11.220,15.859 14.080,17.045 15.110,19.531 C15.110,19.531 15.110,19.531 15.110,19.531 C16.140,22.018 14.955,24.879 12.469,25.909 ZM13.787,20.079 C13.237,18.753 11.950,17.950 10.596,17.950 C10.157,17.950 9.711,18.035 9.281,18.213 C7.523,18.941 6.686,20.962 7.414,22.719 C7.767,23.571 8.429,24.233 9.281,24.586 C10.132,24.939 11.069,24.939 11.920,24.586 C13.678,23.858 14.515,21.837 13.787,20.079 Z" class="cls-1"/>
</svg>
