<svg xmlns="http://www.w3.org/2000/svg" xmlns:xlink="http://www.w3.org/1999/xlink" preserveAspectRatio="xMidYMid" width="40" height="33" viewBox="0 0 40 33">
  <defs>
    <style>
      .cls-1 {
        fill: #e7e7e7;
        fill-rule: evenodd;
      }
    </style>
  </defs>
  <g>
    <path d="M20.562,5.329 C20.089,5.025 19.001,4.914 18.163,5.065 C18.056,4.308 17.616,3.652 16.817,3.059 L16.357,2.765 L16.050,3.206 C15.657,3.774 15.461,4.562 15.526,5.317 C15.555,5.583 15.646,6.058 15.930,6.475 C15.646,6.622 15.083,6.824 14.342,6.811 L0.082,6.811 L0.054,6.968 C-0.080,7.727 -0.077,10.095 1.525,11.915 C2.743,13.298 4.568,14.000 6.950,14.000 C12.115,14.000 15.936,11.718 17.726,7.570 C18.429,7.583 19.944,7.574 20.723,6.147 C20.743,6.114 20.789,6.028 20.925,5.758 L21.000,5.610 L20.562,5.329 ZM9.316,1.892 L11.484,1.892 L11.484,-0.000 L9.316,-0.000 L9.316,1.892 ZM9.316,4.162 L11.484,4.162 L11.484,2.270 L9.316,2.270 L9.316,4.162 ZM6.753,4.162 L8.921,4.162 L8.921,2.270 L6.753,2.270 L6.753,4.162 ZM4.191,4.162 L6.359,4.162 L6.359,2.270 L4.191,2.270 L4.191,4.162 ZM1.629,6.432 L3.797,6.432 L3.797,4.541 L1.629,4.541 L1.629,6.432 ZM4.191,6.432 L6.359,6.432 L6.359,4.541 L4.191,4.541 L4.191,6.432 ZM6.753,6.432 L8.921,6.432 L8.921,4.541 L6.753,4.541 L6.753,6.432 ZM9.316,6.432 L11.484,6.432 L11.484,4.541 L9.316,4.541 L9.316,6.432 ZM11.878,6.432 L14.046,6.432 L14.046,4.541 L11.878,4.541 L11.878,6.432 Z" class="cls-1"/>
    <path d="M39.562,11.329 C39.088,11.025 38.001,10.914 37.163,11.065 C37.056,10.308 36.616,9.652 35.816,9.059 L35.357,8.765 L35.050,9.206 C34.658,9.774 34.461,10.562 34.526,11.317 C34.555,11.583 34.646,12.058 34.930,12.475 C34.646,12.622 34.083,12.824 33.342,12.811 L19.082,12.811 L19.054,12.968 C18.920,13.727 18.923,16.095 20.525,17.915 C21.743,19.298 23.568,20.000 25.950,20.000 C31.115,20.000 34.936,17.718 36.726,13.570 C37.429,13.583 38.944,13.574 39.723,12.147 C39.743,12.114 39.789,12.028 39.925,11.758 L40.000,11.610 L39.562,11.329 ZM28.316,7.892 L30.484,7.892 L30.484,6.000 L28.316,6.000 L28.316,7.892 ZM28.316,10.162 L30.484,10.162 L30.484,8.270 L28.316,8.270 L28.316,10.162 ZM25.753,10.162 L27.921,10.162 L27.921,8.270 L25.753,8.270 L25.753,10.162 ZM23.191,10.162 L25.359,10.162 L25.359,8.270 L23.191,8.270 L23.191,10.162 ZM20.628,12.432 L22.797,12.432 L22.797,10.540 L20.628,10.540 L20.628,12.432 ZM23.191,12.432 L25.359,12.432 L25.359,10.540 L23.191,10.540 L23.191,12.432 ZM25.753,12.432 L27.921,12.432 L27.921,10.540 L25.753,10.540 L25.753,12.432 ZM28.316,12.432 L30.484,12.432 L30.484,10.540 L28.316,10.540 L28.316,12.432 ZM30.878,12.432 L33.046,12.432 L33.046,10.540 L30.878,10.540 L30.878,12.432 Z" class="cls-1"/>
    <path d="M24.562,24.329 C24.088,24.025 23.001,23.914 22.163,24.065 C22.056,23.308 21.616,22.652 20.816,22.059 L20.357,21.765 L20.050,22.206 C19.658,22.774 19.461,23.562 19.526,24.317 C19.555,24.583 19.646,25.058 19.930,25.475 C19.646,25.622 19.083,25.824 18.342,25.811 L4.082,25.811 L4.054,25.968 C3.920,26.727 3.923,29.095 5.525,30.915 C6.743,32.298 8.568,33.000 10.950,33.000 C16.115,33.000 19.936,30.718 21.726,26.570 C22.429,26.583 23.944,26.574 24.723,25.147 C24.743,25.114 24.789,25.028 24.925,24.758 L25.000,24.610 L24.562,24.329 ZM13.316,20.892 L15.484,20.892 L15.484,19.000 L13.316,19.000 L13.316,20.892 ZM13.316,23.162 L15.484,23.162 L15.484,21.270 L13.316,21.270 L13.316,23.162 ZM10.753,23.162 L12.921,23.162 L12.921,21.270 L10.753,21.270 L10.753,23.162 ZM8.191,23.162 L10.359,23.162 L10.359,21.270 L8.191,21.270 L8.191,23.162 ZM5.628,25.432 L7.797,25.432 L7.797,23.540 L5.628,23.540 L5.628,25.432 ZM8.191,25.432 L10.359,25.432 L10.359,23.540 L8.191,23.540 L8.191,25.432 ZM10.753,25.432 L12.921,25.432 L12.921,23.540 L10.753,23.540 L10.753,25.432 ZM13.316,25.432 L15.484,25.432 L15.484,23.540 L13.316,23.540 L13.316,25.432 ZM15.878,25.432 L18.046,25.432 L18.046,23.540 L15.878,23.540 L15.878,25.432 Z" class="cls-1"/>
  </g>
</svg>
