<svg xmlns="http://www.w3.org/2000/svg" xmlns:xlink="http://www.w3.org/1999/xlink" preserveAspectRatio="xMidYMid" width="37" height="37" viewBox="0 0 37 37">
  <defs>
    <style>
      .cls-1 {
        fill: #fff;
        fill-rule: evenodd;
      }
    </style>
  </defs>
  <path d="M29.820,33.277 C25.863,33.277 22.640,30.074 22.640,26.137 L22.640,20.348 C22.640,20.031 22.830,19.745 23.121,19.617 L29.498,16.838 C29.705,16.751 29.935,16.751 30.142,16.838 L36.519,19.617 C36.810,19.741 37.000,20.031 37.000,20.348 L37.000,26.134 C37.000,30.074 33.777,33.277 29.820,33.277 ZM35.396,25.026 L29.820,25.026 L29.820,18.442 L24.245,20.870 L24.245,25.026 L29.820,25.026 L29.820,31.684 C32.894,31.684 35.396,29.195 35.396,26.137 L35.396,25.026 ZM29.031,15.291 L29.031,1.321 L5.692,1.321 L5.692,22.464 L4.174,22.464 L4.174,0.000 L30.360,0.000 L30.360,15.291 C30.298,15.291 30.190,15.291 30.105,15.291 C29.742,15.291 29.421,15.291 29.031,15.291 ZM4.582,26.029 C9.165,26.680 11.129,29.936 11.784,33.193 C10.147,30.913 7.856,29.871 4.582,29.871 L4.582,32.541 L-0.000,27.982 L4.582,23.423 L4.582,26.029 ZM10.006,7.996 C10.255,7.687 10.541,7.405 10.856,7.159 C10.977,7.066 11.150,7.080 11.253,7.192 C11.565,7.535 12.124,7.662 12.554,7.487 C13.002,7.305 13.290,6.857 13.273,6.372 C13.268,6.220 13.381,6.089 13.533,6.073 C13.927,6.029 14.323,6.030 14.716,6.076 C14.870,6.093 14.983,6.227 14.974,6.381 C14.946,6.871 15.231,7.327 15.684,7.516 C16.118,7.697 16.681,7.568 16.994,7.223 C17.098,7.109 17.274,7.096 17.394,7.191 C17.700,7.435 17.980,7.716 18.226,8.028 C18.321,8.147 18.307,8.319 18.194,8.422 C17.835,8.749 17.717,9.269 17.900,9.715 C18.079,10.150 18.507,10.431 18.989,10.431 C19.137,10.431 19.310,10.542 19.326,10.689 C19.371,11.085 19.370,11.484 19.324,11.877 C19.306,12.031 19.167,12.146 19.016,12.134 L18.951,12.132 C18.487,12.132 18.055,12.417 17.876,12.841 C17.686,13.291 17.805,13.816 18.171,14.145 C18.285,14.248 18.299,14.423 18.202,14.543 C17.952,14.852 17.666,15.134 17.352,15.379 C17.231,15.472 17.059,15.458 16.955,15.346 C16.643,15.004 16.086,14.876 15.654,15.051 C15.207,15.233 14.917,15.682 14.935,16.166 C14.940,16.318 14.827,16.449 14.675,16.466 C14.483,16.487 14.290,16.497 14.098,16.497 C13.895,16.497 13.693,16.486 13.492,16.462 C13.339,16.445 13.225,16.311 13.235,16.157 C13.262,15.667 12.977,15.211 12.524,15.022 C12.090,14.841 11.528,14.969 11.213,15.315 C11.109,15.430 10.934,15.443 10.813,15.347 C10.506,15.101 10.226,14.820 9.982,14.510 C9.887,14.391 9.902,14.219 10.014,14.116 C10.374,13.788 10.492,13.269 10.308,12.823 C10.123,12.377 9.684,12.095 9.227,12.107 C9.076,12.107 8.899,11.997 8.882,11.850 C8.837,11.454 8.838,11.053 8.884,10.661 C8.903,10.510 9.021,10.399 9.188,10.404 C9.701,10.404 10.150,10.127 10.331,9.697 C10.521,9.247 10.403,8.722 10.037,8.393 C9.923,8.290 9.909,8.116 10.006,7.996 ZM14.112,13.024 C15.079,13.024 15.865,12.242 15.865,11.280 C15.865,10.319 15.079,9.536 14.112,9.536 C13.146,9.536 12.360,10.319 12.360,11.280 C12.360,12.242 13.146,13.024 14.112,13.024 ZM24.771,9.011 C24.579,9.249 24.359,9.466 24.117,9.654 C24.024,9.726 23.892,9.715 23.812,9.629 C23.572,9.366 23.144,9.267 22.811,9.402 C22.467,9.542 22.245,9.887 22.258,10.260 C22.262,10.377 22.175,10.477 22.058,10.490 C21.910,10.506 21.762,10.515 21.614,10.515 C21.459,10.515 21.303,10.506 21.149,10.488 C21.031,10.474 20.943,10.371 20.950,10.253 C20.972,9.876 20.752,9.525 20.404,9.380 C20.070,9.241 19.638,9.339 19.396,9.605 C19.316,9.694 19.181,9.704 19.088,9.630 C18.852,9.441 18.637,9.224 18.449,8.986 C18.376,8.894 18.387,8.762 18.474,8.683 C18.750,8.431 18.841,8.032 18.700,7.689 C18.558,7.346 18.220,7.129 17.868,7.138 C17.752,7.138 17.616,7.054 17.603,6.940 C17.569,6.636 17.569,6.328 17.605,6.026 C17.619,5.910 17.710,5.824 17.838,5.828 C18.233,5.828 18.578,5.615 18.717,5.285 C18.864,4.938 18.773,4.535 18.491,4.281 C18.404,4.202 18.393,4.068 18.467,3.976 C18.659,3.738 18.879,3.522 19.121,3.333 C19.214,3.261 19.347,3.271 19.426,3.358 C19.667,3.621 20.096,3.719 20.427,3.585 C20.771,3.444 20.993,3.100 20.980,2.727 C20.976,2.610 21.063,2.510 21.180,2.497 C21.483,2.463 21.788,2.464 22.090,2.499 C22.208,2.513 22.295,2.616 22.288,2.734 C22.266,3.111 22.486,3.461 22.834,3.607 C23.168,3.746 23.601,3.647 23.842,3.382 C23.922,3.294 24.057,3.284 24.149,3.357 C24.385,3.544 24.600,3.761 24.790,4.000 C24.862,4.092 24.852,4.225 24.765,4.304 C24.489,4.555 24.398,4.955 24.539,5.298 C24.677,5.633 25.005,5.849 25.376,5.849 C25.490,5.849 25.623,5.934 25.636,6.047 C25.670,6.351 25.669,6.659 25.634,6.961 C25.620,7.079 25.513,7.168 25.397,7.159 L25.347,7.157 C24.990,7.157 24.658,7.376 24.520,7.702 C24.374,8.049 24.466,8.452 24.747,8.705 C24.835,8.785 24.846,8.919 24.771,9.011 ZM21.626,5.161 C20.882,5.161 20.277,5.762 20.277,6.502 C20.277,7.242 20.882,7.843 21.626,7.843 C22.369,7.843 22.974,7.242 22.974,6.502 C22.974,5.762 22.369,5.161 21.626,5.161 ZM5.692,35.301 L29.031,35.301 L29.031,34.735 L30.364,34.735 L30.360,37.000 L4.174,37.000 L4.174,34.546 L5.692,34.546 L5.692,35.301 Z" class="cls-1"/>
</svg>
