<svg xmlns="http://www.w3.org/2000/svg" xmlns:xlink="http://www.w3.org/1999/xlink" preserveAspectRatio="xMidYMid" width="30.312" height="25" viewBox="0 0 30.312 25">
  <defs>
    <style>
      .cls-1 {
        fill: #e7e7e7;
        fill-rule: evenodd;
      }
    </style>
  </defs>
  <path d="M21.646,14.690 L21.646,8.571 L12.987,14.690 L12.987,8.571 L10.823,8.571 L10.823,3.575 L8.658,3.575 L8.658,8.571 L6.493,8.571 L6.493,0.006 L2.164,0.006 L2.164,8.571 L-0.001,8.571 L-0.001,24.989 L30.305,24.989 L30.305,8.571 L21.646,14.690 ZM11.544,21.420 L8.658,21.420 L8.658,18.565 L11.544,18.565 L11.544,21.420 ZM16.595,21.420 L13.709,21.420 L13.709,18.565 L16.595,18.565 L16.595,21.420 ZM21.646,21.420 L18.760,21.420 L18.760,18.565 L21.646,18.565 L21.646,21.420 Z" class="cls-1"/>
</svg>
