<svg xmlns="http://www.w3.org/2000/svg" xmlns:xlink="http://www.w3.org/1999/xlink" preserveAspectRatio="xMidYMid" width="37" height="36" viewBox="0 0 37 36">
  <defs>
    <style>
      .cls-1 {
        fill: #fff;
        fill-rule: evenodd;
      }
    </style>
  </defs>
  <path d="M29.975,32.377 C26.103,32.377 22.949,29.261 22.949,25.431 L22.949,19.798 C22.949,19.490 23.135,19.211 23.420,19.087 L29.660,16.383 C29.862,16.298 30.087,16.298 30.289,16.383 L36.530,19.087 C36.815,19.208 37.000,19.490 37.000,19.798 L37.000,25.427 C37.000,29.261 33.847,32.377 29.975,32.377 ZM35.430,24.349 L29.975,24.349 L29.975,17.943 L24.519,20.306 L24.519,24.349 L29.975,24.349 L29.975,30.827 C32.982,30.827 35.430,28.406 35.430,25.431 L35.430,24.349 ZM29.203,14.878 L29.203,1.286 L6.367,1.286 L6.367,21.857 L4.881,21.857 L4.881,-0.000 L30.503,-0.000 L30.503,14.878 C30.443,14.878 30.337,14.878 30.253,14.878 C29.898,14.878 29.584,14.878 29.203,14.878 ZM5.829,27.179 L7.168,28.503 L6.657,29.008 L5.107,27.475 L5.107,25.081 L5.829,25.081 L5.829,27.179 ZM9.698,27.327 C9.698,29.638 7.811,31.512 5.482,31.512 C4.502,31.512 3.601,31.180 2.885,30.624 L3.610,29.856 C4.134,30.239 4.781,30.465 5.482,30.465 C7.228,30.465 8.644,29.060 8.644,27.327 C8.644,25.593 7.228,24.188 5.482,24.188 C3.770,24.188 2.378,25.537 2.322,27.222 L3.795,27.222 L1.898,29.314 L-0.000,27.222 L1.268,27.222 C1.324,24.959 3.188,23.142 5.482,23.142 C7.811,23.142 9.698,25.015 9.698,27.327 ZM10.588,7.779 C10.831,7.479 11.111,7.205 11.419,6.966 C11.537,6.875 11.706,6.888 11.807,6.998 C12.113,7.331 12.660,7.455 13.080,7.285 C13.519,7.107 13.801,6.671 13.784,6.200 C13.779,6.052 13.890,5.925 14.039,5.908 C14.424,5.866 14.812,5.867 15.196,5.911 C15.347,5.929 15.457,6.059 15.448,6.209 C15.421,6.685 15.700,7.129 16.143,7.313 C16.568,7.489 17.119,7.364 17.425,7.028 C17.527,6.917 17.699,6.904 17.816,6.997 C18.115,7.234 18.389,7.508 18.631,7.811 C18.723,7.927 18.710,8.094 18.599,8.194 C18.248,8.513 18.133,9.018 18.312,9.452 C18.487,9.876 18.905,10.149 19.376,10.149 C19.522,10.149 19.691,10.257 19.707,10.400 C19.751,10.785 19.750,11.174 19.705,11.556 C19.687,11.705 19.551,11.818 19.404,11.806 L19.340,11.804 C18.886,11.804 18.463,12.081 18.288,12.494 C18.102,12.932 18.218,13.442 18.576,13.763 C18.688,13.863 18.702,14.033 18.607,14.149 C18.363,14.451 18.083,14.725 17.775,14.963 C17.657,15.054 17.489,15.040 17.387,14.931 C17.081,14.599 16.537,14.473 16.114,14.644 C15.676,14.822 15.393,15.258 15.410,15.729 C15.415,15.877 15.305,16.004 15.156,16.021 C14.968,16.041 14.779,16.051 14.591,16.051 C14.393,16.051 14.195,16.040 13.999,16.017 C13.849,16.000 13.738,15.870 13.747,15.720 C13.774,15.244 13.495,14.800 13.051,14.616 C12.627,14.440 12.077,14.565 11.769,14.901 C11.667,15.013 11.495,15.026 11.377,14.932 C11.077,14.693 10.803,14.419 10.564,14.118 C10.471,14.002 10.485,13.835 10.595,13.735 C10.947,13.416 11.063,12.910 10.883,12.477 C10.702,12.042 10.273,11.768 9.825,11.780 C9.677,11.780 9.504,11.673 9.488,11.529 C9.444,11.144 9.445,10.755 9.490,10.373 C9.508,10.226 9.624,10.118 9.787,10.123 C10.289,10.123 10.728,9.853 10.906,9.435 C11.092,8.997 10.976,8.487 10.618,8.166 C10.507,8.066 10.493,7.896 10.588,7.779 ZM14.605,12.672 C15.551,12.672 16.321,11.911 16.321,10.975 C16.321,10.040 15.551,9.279 14.605,9.279 C13.660,9.279 12.890,10.040 12.890,10.975 C12.890,11.911 13.660,12.672 14.605,12.672 ZM25.034,8.768 C24.846,8.999 24.631,9.210 24.395,9.393 C24.303,9.463 24.174,9.453 24.096,9.369 C23.861,9.113 23.442,9.017 23.117,9.148 C22.780,9.285 22.562,9.620 22.576,9.982 C22.579,10.096 22.495,10.194 22.380,10.207 C22.235,10.222 22.090,10.230 21.946,10.230 C21.793,10.230 21.641,10.222 21.490,10.204 C21.375,10.191 21.289,10.091 21.296,9.976 C21.317,9.609 21.102,9.268 20.761,9.126 C20.435,8.991 20.012,9.087 19.775,9.346 C19.696,9.432 19.565,9.442 19.474,9.369 C19.243,9.185 19.032,8.975 18.849,8.743 C18.777,8.654 18.788,8.525 18.873,8.448 C19.143,8.203 19.232,7.814 19.094,7.481 C18.955,7.147 18.624,6.936 18.280,6.945 C18.167,6.945 18.033,6.863 18.021,6.752 C17.987,6.456 17.988,6.157 18.022,5.863 C18.036,5.750 18.125,5.667 18.251,5.671 C18.637,5.671 18.975,5.463 19.111,5.142 C19.254,4.804 19.165,4.412 18.890,4.166 C18.804,4.088 18.794,3.958 18.867,3.868 C19.054,3.637 19.269,3.426 19.506,3.243 C19.597,3.173 19.727,3.183 19.805,3.267 C20.040,3.523 20.460,3.619 20.784,3.488 C21.121,3.351 21.338,3.016 21.325,2.653 C21.321,2.539 21.407,2.442 21.521,2.429 C21.817,2.397 22.115,2.398 22.411,2.432 C22.527,2.445 22.612,2.545 22.605,2.660 C22.584,3.026 22.799,3.368 23.139,3.509 C23.466,3.645 23.890,3.549 24.125,3.290 C24.203,3.205 24.336,3.195 24.426,3.266 C24.656,3.449 24.867,3.659 25.053,3.892 C25.124,3.982 25.113,4.110 25.028,4.187 C24.758,4.432 24.669,4.821 24.807,5.155 C24.942,5.480 25.264,5.691 25.626,5.691 C25.738,5.691 25.868,5.774 25.880,5.884 C25.914,6.180 25.913,6.479 25.879,6.773 C25.865,6.888 25.761,6.974 25.647,6.965 L25.598,6.964 C25.249,6.964 24.924,7.177 24.789,7.494 C24.646,7.831 24.736,8.224 25.011,8.470 C25.097,8.547 25.107,8.678 25.034,8.768 ZM21.957,5.021 C21.229,5.021 20.638,5.607 20.638,6.326 C20.638,7.046 21.229,7.631 21.957,7.631 C22.684,7.631 23.276,7.046 23.276,6.326 C23.276,5.607 22.684,5.021 21.957,5.021 ZM6.367,34.347 L29.203,34.347 L29.203,33.796 L30.507,33.796 L30.503,36.000 L4.881,36.000 L4.881,33.612 L6.367,33.612 L6.367,34.347 Z" class="cls-1"/>
</svg>
