<svg xmlns="http://www.w3.org/2000/svg" xmlns:xlink="http://www.w3.org/1999/xlink" preserveAspectRatio="xMidYMid" width="29" height="29" viewBox="0 0 29 29">
  <defs>
    <style>
      .cls-1 {
        fill: #e7e7e7;
        fill-rule: evenodd;
      }
    </style>
  </defs>
  <path d="M29.000,11.604 L29.000,17.396 C29.000,18.118 28.660,18.755 28.141,19.169 C28.660,19.584 28.999,20.221 28.999,20.943 L28.999,26.735 C28.999,27.984 28.000,29.000 26.772,29.000 L2.227,29.000 C0.999,29.000 -0.000,27.984 -0.000,26.735 L-0.000,20.943 C-0.000,20.221 0.340,19.584 0.859,19.169 C0.340,18.754 -0.000,18.118 -0.000,17.396 L-0.000,11.604 C-0.000,10.882 0.340,10.245 0.859,9.830 C0.340,9.415 -0.000,8.779 -0.000,8.057 L-0.000,2.265 C-0.000,1.016 0.999,-0.000 2.227,-0.000 L26.773,-0.000 C28.001,-0.000 29.000,1.016 29.000,2.265 L29.000,8.057 C29.000,8.779 28.660,9.416 28.141,9.830 C28.660,10.245 29.000,10.882 29.000,11.604 ZM28.033,2.265 C28.033,1.558 27.468,0.983 26.772,0.983 L2.227,0.983 C1.532,0.983 0.967,1.558 0.967,2.265 L0.967,8.057 C0.967,8.764 1.532,9.339 2.227,9.339 L2.227,9.338 L26.773,9.338 C27.468,9.338 28.033,8.763 28.033,8.057 L28.033,2.265 ZM28.033,11.604 C28.033,10.897 27.468,10.322 26.772,10.322 L2.227,10.322 C1.532,10.322 0.967,10.897 0.967,11.604 L0.967,17.396 C0.967,18.103 1.532,18.678 2.227,18.677 L26.773,18.677 C27.468,18.677 28.033,18.102 28.033,17.396 L28.033,11.604 ZM28.033,20.943 C28.033,20.236 27.468,19.661 26.772,19.661 L2.227,19.661 C1.532,19.661 0.967,20.236 0.967,20.943 L0.967,26.735 C0.967,27.442 1.532,28.017 2.227,28.016 L26.773,28.016 C27.468,28.016 28.033,27.441 28.033,26.735 L28.033,20.943 ZM25.133,25.068 C24.866,25.068 24.650,24.848 24.650,24.576 C24.650,24.305 24.866,24.085 25.133,24.085 C25.400,24.085 25.617,24.305 25.617,24.576 C25.617,24.848 25.400,25.068 25.133,25.068 ZM24.167,23.593 C23.900,23.593 23.683,23.373 23.683,23.102 C23.683,22.830 23.900,22.610 24.167,22.610 C24.434,22.610 24.650,22.830 24.650,23.102 C24.650,23.373 24.434,23.593 24.167,23.593 ZM23.200,25.068 C22.933,25.068 22.717,24.848 22.717,24.576 C22.717,24.305 22.933,24.085 23.200,24.085 C23.467,24.085 23.683,24.305 23.683,24.576 C23.683,24.848 23.467,25.068 23.200,25.068 ZM22.233,23.593 C21.966,23.593 21.750,23.373 21.750,23.102 C21.750,22.830 21.966,22.610 22.233,22.610 C22.500,22.610 22.717,22.830 22.717,23.102 C22.717,23.373 22.500,23.593 22.233,23.593 ZM21.267,25.068 C21.000,25.068 20.783,24.848 20.783,24.576 C20.783,24.305 21.000,24.085 21.267,24.085 C21.534,24.085 21.750,24.305 21.750,24.576 C21.750,24.848 21.534,25.068 21.267,25.068 ZM20.300,23.593 C20.033,23.593 19.817,23.373 19.817,23.102 C19.817,22.830 20.033,22.610 20.300,22.610 C20.567,22.610 20.783,22.830 20.783,23.102 C20.783,23.373 20.567,23.593 20.300,23.593 ZM19.333,25.068 C19.066,25.068 18.850,24.848 18.850,24.576 C18.850,24.305 19.066,24.085 19.333,24.085 C19.600,24.085 19.817,24.305 19.817,24.576 C19.817,24.848 19.600,25.068 19.333,25.068 ZM18.367,23.593 C18.100,23.593 17.883,23.373 17.883,23.102 C17.883,22.830 18.100,22.610 18.367,22.610 C18.634,22.610 18.850,22.830 18.850,23.102 C18.850,23.373 18.634,23.593 18.367,23.593 ZM17.400,25.068 C17.133,25.068 16.917,24.848 16.917,24.576 C16.917,24.305 17.133,24.085 17.400,24.085 C17.667,24.085 17.883,24.305 17.883,24.576 C17.883,24.848 17.667,25.068 17.400,25.068 ZM16.433,23.593 C16.166,23.593 15.950,23.373 15.950,23.102 C15.950,22.830 16.166,22.610 16.433,22.610 C16.700,22.610 16.917,22.830 16.917,23.102 C16.917,23.373 16.700,23.593 16.433,23.593 ZM5.075,26.051 C3.876,26.051 2.900,25.058 2.900,23.839 C2.900,22.619 3.876,21.627 5.075,21.627 C6.274,21.627 7.250,22.619 7.250,23.839 C7.250,25.058 6.274,26.051 5.075,26.051 ZM5.075,22.610 C4.409,22.610 3.867,23.161 3.867,23.839 C3.867,24.517 4.409,25.068 5.075,25.068 C5.741,25.068 6.283,24.517 6.283,23.839 C6.283,23.161 5.741,22.610 5.075,22.610 ZM25.133,15.729 C24.866,15.729 24.650,15.509 24.650,15.237 C24.650,14.966 24.866,14.746 25.133,14.746 C25.400,14.746 25.617,14.966 25.617,15.237 C25.617,15.509 25.400,15.729 25.133,15.729 ZM24.167,14.254 C23.900,14.254 23.683,14.034 23.683,13.763 C23.683,13.491 23.900,13.271 24.167,13.271 C24.434,13.271 24.650,13.491 24.650,13.763 C24.650,14.034 24.434,14.254 24.167,14.254 ZM23.200,15.729 C22.933,15.729 22.717,15.509 22.717,15.237 C22.717,14.966 22.933,14.746 23.200,14.746 C23.467,14.746 23.683,14.966 23.683,15.237 C23.683,15.509 23.467,15.729 23.200,15.729 ZM22.233,14.254 C21.966,14.254 21.750,14.034 21.750,13.763 C21.750,13.491 21.966,13.271 22.233,13.271 C22.500,13.271 22.717,13.491 22.717,13.763 C22.717,14.034 22.500,14.254 22.233,14.254 ZM21.267,15.729 C21.000,15.729 20.783,15.509 20.783,15.237 C20.783,14.966 21.000,14.746 21.267,14.746 C21.534,14.746 21.750,14.966 21.750,15.237 C21.750,15.509 21.534,15.729 21.267,15.729 ZM20.300,14.254 C20.033,14.254 19.817,14.034 19.817,13.763 C19.817,13.491 20.033,13.271 20.300,13.271 C20.567,13.271 20.783,13.491 20.783,13.763 C20.783,14.034 20.567,14.254 20.300,14.254 ZM19.333,15.729 C19.066,15.729 18.850,15.509 18.850,15.237 C18.850,14.966 19.066,14.746 19.333,14.746 C19.600,14.746 19.817,14.966 19.817,15.237 C19.817,15.509 19.600,15.729 19.333,15.729 ZM18.367,14.254 C18.100,14.254 17.883,14.034 17.883,13.763 C17.883,13.491 18.100,13.271 18.367,13.271 C18.634,13.271 18.850,13.491 18.850,13.763 C18.850,14.034 18.634,14.254 18.367,14.254 ZM17.400,15.729 C17.133,15.729 16.917,15.509 16.917,15.237 C16.917,14.966 17.133,14.746 17.400,14.746 C17.667,14.746 17.883,14.966 17.883,15.237 C17.883,15.509 17.667,15.729 17.400,15.729 ZM16.433,14.254 C16.166,14.254 15.950,14.034 15.950,13.763 C15.950,13.491 16.166,13.271 16.433,13.271 C16.700,13.271 16.917,13.491 16.917,13.763 C16.917,14.034 16.700,14.254 16.433,14.254 ZM5.075,16.712 C3.876,16.712 2.900,15.719 2.900,14.500 C2.900,13.281 3.876,12.288 5.075,12.288 C6.274,12.288 7.250,13.281 7.250,14.500 C7.250,15.719 6.274,16.712 5.075,16.712 ZM5.075,13.271 C4.409,13.271 3.867,13.822 3.867,14.500 C3.867,15.178 4.409,15.729 5.075,15.729 C5.741,15.729 6.283,15.178 6.283,14.500 C6.283,13.822 5.741,13.271 5.075,13.271 ZM25.133,6.390 C24.866,6.390 24.650,6.170 24.650,5.898 C24.650,5.627 24.866,5.407 25.133,5.407 C25.400,5.407 25.617,5.627 25.617,5.898 C25.617,6.170 25.400,6.390 25.133,6.390 ZM24.167,4.915 C23.900,4.915 23.683,4.695 23.683,4.424 C23.683,4.152 23.900,3.932 24.167,3.932 C24.434,3.932 24.650,4.152 24.650,4.424 C24.650,4.695 24.434,4.915 24.167,4.915 ZM23.200,6.390 C22.933,6.390 22.717,6.170 22.717,5.898 C22.717,5.627 22.933,5.407 23.200,5.407 C23.467,5.407 23.683,5.627 23.683,5.898 C23.683,6.170 23.467,6.390 23.200,6.390 ZM22.233,4.915 C21.966,4.915 21.750,4.695 21.750,4.424 C21.750,4.152 21.966,3.932 22.233,3.932 C22.500,3.932 22.717,4.152 22.717,4.424 C22.717,4.695 22.500,4.915 22.233,4.915 ZM21.267,6.390 C21.000,6.390 20.783,6.170 20.783,5.898 C20.783,5.627 21.000,5.407 21.267,5.407 C21.534,5.407 21.750,5.627 21.750,5.898 C21.750,6.170 21.534,6.390 21.267,6.390 ZM20.300,4.915 C20.033,4.915 19.817,4.695 19.817,4.424 C19.817,4.152 20.033,3.932 20.300,3.932 C20.567,3.932 20.783,4.152 20.783,4.424 C20.783,4.695 20.567,4.915 20.300,4.915 ZM19.333,6.390 C19.066,6.390 18.850,6.170 18.850,5.898 C18.850,5.627 19.066,5.407 19.333,5.407 C19.600,5.407 19.817,5.627 19.817,5.898 C19.817,6.170 19.600,6.390 19.333,6.390 ZM18.367,4.915 C18.100,4.915 17.883,4.695 17.883,4.424 C17.883,4.152 18.100,3.932 18.367,3.932 C18.634,3.932 18.850,4.152 18.850,4.424 C18.850,4.695 18.634,4.915 18.367,4.915 ZM17.400,6.390 C17.133,6.390 16.917,6.170 16.917,5.898 C16.917,5.627 17.133,5.407 17.400,5.407 C17.667,5.407 17.883,5.627 17.883,5.898 C17.883,6.170 17.667,6.390 17.400,6.390 ZM16.433,4.915 C16.166,4.915 15.950,4.695 15.950,4.424 C15.950,4.152 16.166,3.932 16.433,3.932 C16.700,3.932 16.917,4.152 16.917,4.424 C16.917,4.695 16.700,4.915 16.433,4.915 ZM5.075,7.373 C3.876,7.373 2.900,6.380 2.900,5.161 C2.900,3.942 3.876,2.949 5.075,2.949 C6.274,2.949 7.250,3.942 7.250,5.161 C7.250,6.380 6.274,7.373 5.075,7.373 ZM5.075,3.932 C4.409,3.932 3.867,4.483 3.867,5.161 C3.867,5.839 4.409,6.390 5.075,6.390 C5.741,6.390 6.283,5.839 6.283,5.161 C6.283,4.483 5.741,3.932 5.075,3.932 Z" class="cls-1"/>
</svg>
