<svg xmlns="http://www.w3.org/2000/svg" xmlns:xlink="http://www.w3.org/1999/xlink" preserveAspectRatio="xMidYMid" width="35" height="36" viewBox="0 0 35 36">
  <defs>
    <style>
      .cls-1 {
        fill: #fff;
        fill-rule: evenodd;
      }
    </style>
  </defs>
  <path d="M28.208,32.377 C24.465,32.377 21.416,29.261 21.416,25.431 L21.416,19.798 C21.416,19.490 21.596,19.211 21.871,19.087 L27.904,16.383 C28.099,16.298 28.317,16.298 28.512,16.383 L34.545,19.087 C34.821,19.208 35.000,19.490 35.000,19.798 L35.000,25.427 C35.000,29.261 31.951,32.377 28.208,32.377 ZM33.482,24.349 L28.208,24.349 L28.208,17.943 L22.934,20.306 L22.934,24.349 L28.208,24.349 L28.208,30.827 C31.116,30.827 33.482,28.406 33.482,25.431 L33.482,24.349 ZM27.462,14.878 L27.462,1.286 L5.385,1.286 L5.385,21.857 L3.949,21.857 L3.949,-0.000 L28.718,-0.000 L28.718,14.878 C28.660,14.878 28.558,14.878 28.477,14.878 C28.134,14.878 27.831,14.878 27.462,14.878 ZM6.812,22.790 L11.147,27.226 L6.812,31.662 L6.812,29.064 C3.716,29.064 1.548,30.078 -0.000,32.296 C0.619,29.127 2.477,25.959 6.812,25.325 L6.812,22.790 ZM9.465,7.779 C9.700,7.479 9.971,7.205 10.269,6.966 C10.383,6.875 10.547,6.888 10.645,6.998 C10.940,7.331 11.469,7.455 11.875,7.285 C12.299,7.107 12.572,6.671 12.556,6.200 C12.551,6.052 12.658,5.925 12.802,5.908 C13.174,5.866 13.549,5.867 13.920,5.911 C14.066,5.929 14.173,6.059 14.164,6.209 C14.138,6.685 14.408,7.129 14.836,7.313 C15.247,7.489 15.779,7.364 16.076,7.028 C16.174,6.917 16.340,6.904 16.453,6.997 C16.743,7.234 17.008,7.508 17.241,7.811 C17.331,7.927 17.318,8.094 17.211,8.194 C16.871,8.513 16.760,9.018 16.933,9.452 C17.102,9.876 17.506,10.149 17.962,10.149 C18.103,10.149 18.266,10.257 18.282,10.400 C18.324,10.785 18.323,11.174 18.279,11.556 C18.262,11.705 18.131,11.818 17.988,11.806 L17.927,11.804 C17.487,11.804 17.079,12.081 16.910,12.494 C16.730,12.932 16.843,13.442 17.189,13.763 C17.297,13.863 17.310,14.033 17.218,14.149 C16.982,14.451 16.711,14.725 16.414,14.963 C16.300,15.054 16.137,15.040 16.039,14.931 C15.743,14.599 15.217,14.473 14.808,14.644 C14.385,14.822 14.111,15.258 14.128,15.729 C14.132,15.877 14.026,16.004 13.881,16.021 C13.700,16.041 13.518,16.051 13.336,16.051 C13.144,16.051 12.953,16.040 12.763,16.017 C12.618,16.000 12.511,15.870 12.519,15.720 C12.546,15.244 12.276,14.800 11.847,14.616 C11.437,14.440 10.905,14.565 10.607,14.901 C10.508,15.013 10.343,15.026 10.229,14.932 C9.939,14.693 9.673,14.419 9.443,14.118 C9.353,14.002 9.366,13.835 9.473,13.735 C9.813,13.416 9.925,12.910 9.751,12.477 C9.576,12.043 9.161,11.768 8.728,11.780 C8.585,11.780 8.418,11.673 8.402,11.529 C8.360,11.144 8.360,10.755 8.404,10.373 C8.421,10.226 8.534,10.118 8.691,10.123 C9.177,10.123 9.601,9.853 9.773,9.435 C9.952,8.997 9.841,8.487 9.495,8.166 C9.387,8.066 9.373,7.896 9.465,7.779 ZM13.350,12.672 C14.264,12.672 15.008,11.911 15.008,10.975 C15.008,10.040 14.264,9.279 13.350,9.279 C12.435,9.279 11.692,10.040 11.692,10.975 C11.692,11.911 12.435,12.672 13.350,12.672 ZM23.432,8.768 C23.250,8.999 23.042,9.210 22.813,9.393 C22.725,9.463 22.600,9.453 22.525,9.369 C22.297,9.113 21.893,9.017 21.578,9.148 C21.253,9.285 21.042,9.620 21.055,9.982 C21.059,10.096 20.977,10.194 20.866,10.207 C20.726,10.222 20.586,10.230 20.446,10.230 C20.299,10.230 20.152,10.222 20.006,10.204 C19.894,10.191 19.811,10.091 19.818,9.976 C19.838,9.609 19.631,9.268 19.301,9.126 C18.986,8.991 18.576,9.087 18.347,9.346 C18.271,9.432 18.144,9.442 18.056,9.369 C17.833,9.185 17.629,8.975 17.452,8.743 C17.383,8.654 17.393,8.525 17.475,8.448 C17.736,8.203 17.822,7.814 17.689,7.481 C17.554,7.147 17.235,6.936 16.902,6.945 C16.792,6.945 16.663,6.863 16.651,6.752 C16.619,6.456 16.619,6.157 16.653,5.863 C16.666,5.750 16.753,5.667 16.874,5.671 C17.247,5.671 17.574,5.463 17.706,5.142 C17.844,4.804 17.758,4.412 17.492,4.166 C17.409,4.088 17.398,3.958 17.469,3.868 C17.650,3.637 17.858,3.426 18.088,3.243 C18.175,3.173 18.301,3.183 18.376,3.267 C18.604,3.523 19.010,3.619 19.323,3.488 C19.648,3.351 19.858,3.016 19.846,2.653 C19.842,2.539 19.925,2.442 20.035,2.429 C20.322,2.397 20.610,2.398 20.896,2.432 C21.008,2.445 21.090,2.545 21.083,2.660 C21.063,3.026 21.271,3.368 21.600,3.509 C21.916,3.645 22.325,3.549 22.553,3.290 C22.629,3.205 22.757,3.195 22.844,3.266 C23.066,3.449 23.270,3.659 23.450,3.892 C23.518,3.982 23.508,4.110 23.426,4.187 C23.165,4.432 23.079,4.821 23.212,5.155 C23.343,5.480 23.654,5.691 24.004,5.691 C24.112,5.691 24.238,5.774 24.250,5.884 C24.282,6.180 24.282,6.479 24.248,6.773 C24.235,6.888 24.134,6.974 24.024,6.965 L23.977,6.964 C23.639,6.964 23.325,7.177 23.195,7.494 C23.057,7.831 23.143,8.224 23.409,8.470 C23.493,8.547 23.503,8.678 23.432,8.768 ZM20.457,5.021 C19.753,5.021 19.181,5.607 19.181,6.326 C19.181,7.046 19.753,7.631 20.457,7.631 C21.160,7.631 21.732,7.046 21.732,6.326 C21.732,5.607 21.160,5.021 20.457,5.021 ZM5.385,34.347 L27.462,34.347 L27.462,33.796 L28.723,33.796 L28.718,36.000 L3.949,36.000 L3.949,33.612 L5.385,33.612 L5.385,34.347 Z" class="cls-1"/>
</svg>
