<svg xmlns="http://www.w3.org/2000/svg" xmlns:xlink="http://www.w3.org/1999/xlink" preserveAspectRatio="xMidYMid" width="33.87" height="33.906" viewBox="0 0 33.87 33.906">
  <defs>
    <style>
      .cls-1 {
        fill: #e7e7e7;
        fill-rule: evenodd;
      }
    </style>
  </defs>
  <path d="M8.222,11.257 C8.592,11.257 8.949,11.313 9.285,11.417 C10.554,9.993 11.962,8.698 13.486,7.547 C13.422,7.278 13.385,6.999 13.385,6.709 C13.385,6.310 13.453,5.926 13.573,5.567 C11.865,4.340 10.008,3.311 8.033,2.516 C6.180,3.661 4.565,5.155 3.278,6.906 C4.234,8.599 5.370,10.179 6.661,11.617 C7.134,11.388 7.662,11.257 8.222,11.257 ZM4.619,14.864 C4.619,14.357 4.725,13.875 4.913,13.438 C3.756,12.167 2.709,10.796 1.791,9.334 C0.640,11.623 -0.012,14.207 -0.012,16.944 C-0.012,20.114 0.859,23.079 2.372,25.616 C2.912,22.566 3.938,19.685 5.355,17.041 C4.895,16.436 4.619,15.683 4.619,14.864 ZM16.988,3.102 C17.940,3.102 18.803,3.474 19.446,4.077 C21.327,3.267 23.306,2.647 25.366,2.250 C22.880,0.816 19.999,-0.009 16.923,-0.009 C14.827,-0.009 12.820,0.375 10.966,1.073 C12.438,1.800 13.839,2.649 15.158,3.606 C15.695,3.288 16.319,3.102 16.988,3.102 ZM22.377,20.091 C22.601,19.623 22.919,19.210 23.313,18.881 C22.249,15.605 20.565,12.608 18.395,10.031 C17.963,10.214 17.487,10.316 16.988,10.316 C16.207,10.316 15.485,10.064 14.895,9.641 C13.589,10.634 12.380,11.748 11.281,12.964 C11.624,13.516 11.826,14.166 11.826,14.864 C11.826,15.241 11.767,15.603 11.661,15.945 C14.821,18.058 18.458,19.507 22.377,20.091 ZM27.050,24.959 C27.100,25.642 27.126,26.332 27.126,27.027 C27.126,28.251 27.048,29.456 26.900,30.640 C29.772,28.540 31.959,25.559 33.061,22.092 C31.756,22.409 30.415,22.635 29.047,22.766 C28.726,23.753 27.993,24.552 27.050,24.959 ZM21.532,22.515 C17.352,21.822 13.475,20.225 10.102,17.937 C9.554,18.273 8.912,18.471 8.222,18.471 C7.969,18.471 7.722,18.444 7.484,18.395 C5.868,21.460 4.836,24.878 4.540,28.503 C6.152,30.234 8.120,31.628 10.330,32.564 C13.073,28.340 16.910,24.846 21.532,22.515 ZM28.292,4.379 C25.578,4.641 22.986,5.323 20.573,6.348 C20.585,6.467 20.591,6.587 20.591,6.709 C20.591,7.278 20.456,7.815 20.221,8.294 C22.632,11.127 24.505,14.429 25.687,18.044 C27.152,18.070 28.405,18.969 28.943,20.245 C30.574,20.079 32.161,19.767 33.691,19.317 C33.799,18.541 33.859,17.750 33.859,16.944 C33.859,11.961 31.711,7.481 28.292,4.379 ZM23.345,24.442 C19.030,26.465 15.422,29.581 12.809,33.391 C14.126,33.720 15.504,33.897 16.923,33.897 C19.477,33.897 21.899,33.328 24.070,32.314 C24.419,30.605 24.604,28.837 24.604,27.027 C24.604,26.372 24.575,25.725 24.525,25.083 C24.090,24.943 23.691,24.725 23.345,24.442 Z" class="cls-1"/>
</svg>
