<svg xmlns="http://www.w3.org/2000/svg" xmlns:xlink="http://www.w3.org/1999/xlink" preserveAspectRatio="xMidYMid" width="38.32" height="35.687" viewBox="0 0 38.32 35.687">
  <defs>
    <style>
      .cls-1 {
        fill: #e7e7e7;
        fill-rule: evenodd;
      }
    </style>
  </defs>
  <g>
    <path d="M14.476,3.640 C14.142,3.431 13.376,3.355 12.786,3.459 C12.711,2.940 12.401,2.491 11.838,2.085 L11.514,1.883 L11.298,2.186 C11.022,2.575 10.883,3.114 10.929,3.631 C10.949,3.813 11.013,4.138 11.214,4.425 C11.013,4.525 10.617,4.664 10.095,4.654 L0.052,4.654 L0.033,4.762 C-0.062,5.282 -0.059,6.904 1.068,8.150 C1.926,9.098 3.212,9.578 4.889,9.578 C8.527,9.578 11.218,8.015 12.478,5.174 C12.974,5.183 14.041,5.177 14.589,4.199 C14.603,4.177 14.636,4.118 14.732,3.933 L14.784,3.832 L14.476,3.640 ZM6.555,1.285 L8.082,1.285 L8.082,-0.010 L6.555,-0.010 L6.555,1.285 ZM6.555,2.840 L8.082,2.840 L8.082,1.544 L6.555,1.544 L6.555,2.840 ZM4.751,2.840 L6.278,2.840 L6.278,1.544 L4.751,1.544 L4.751,2.840 ZM2.946,2.840 L4.473,2.840 L4.473,1.544 L2.946,1.544 L2.946,2.840 ZM1.141,4.395 L2.668,4.395 L2.668,3.099 L1.141,3.099 L1.141,4.395 ZM2.946,4.395 L4.473,4.395 L4.473,3.099 L2.946,3.099 L2.946,4.395 ZM4.751,4.395 L6.278,4.395 L6.278,3.099 L4.751,3.099 L4.751,4.395 ZM6.555,4.395 L8.082,4.395 L8.082,3.099 L6.555,3.099 L6.555,4.395 ZM8.360,4.395 L9.887,4.395 L9.887,3.099 L8.360,3.099 L8.360,4.395 Z" class="cls-1"/>
    <path d="M37.059,23.927 C35.340,24.822 26.433,28.476 24.536,29.462 C22.640,30.449 21.587,30.439 20.089,29.724 C18.590,29.010 9.112,25.190 7.404,24.376 C6.551,23.968 6.102,23.626 6.102,23.301 L6.102,20.051 C6.102,20.051 6.553,20.328 7.340,20.677 C10.870,22.242 18.435,25.329 20.603,26.231 C22.312,27.034 23.411,26.276 24.518,25.803 C37.062,19.845 24.518,25.803 37.062,19.845 C37.620,19.580 38.322,19.257 38.322,19.105 C38.322,19.105 38.321,22.497 38.321,22.799 C38.321,23.120 37.935,23.472 37.059,23.927 ZM37.059,18.432 C35.340,19.326 26.433,22.980 24.536,23.967 C22.640,24.953 21.587,24.944 20.089,24.229 C18.590,23.515 9.112,19.694 7.404,18.880 C6.551,18.473 6.102,18.130 6.102,17.806 L6.102,14.557 C6.087,14.233 6.498,13.928 7.338,13.599 C9.015,12.944 18.442,9.254 20.435,8.541 C22.427,7.828 23.118,7.802 24.813,8.422 C26.509,9.042 35.363,12.558 37.039,13.170 C37.905,13.487 38.340,13.774 38.322,14.102 C38.322,14.192 38.321,17.007 38.321,17.303 C38.321,17.624 37.935,17.977 37.059,18.432 ZM22.850,19.331 L25.106,16.032 L17.640,17.175 L22.850,19.331 ZM11.636,14.429 C11.636,15.282 13.422,15.973 15.626,15.973 C17.830,15.973 19.617,15.282 19.617,14.429 C19.617,13.577 17.830,12.886 15.626,12.886 C13.422,12.886 11.636,13.577 11.636,14.429 ZM24.843,9.869 L22.720,10.563 L20.468,9.684 L21.189,11.013 L18.784,11.878 L22.007,12.167 L23.017,13.842 L23.642,12.341 L26.434,12.052 L24.269,11.243 L24.843,9.869 ZM29.733,12.462 L24.845,14.391 L29.258,16.132 L29.737,15.945 L34.152,14.204 L29.733,12.462 ZM20.603,31.672 C22.312,32.476 23.411,31.717 24.518,31.244 C37.062,25.287 24.518,31.244 37.062,25.287 C37.620,25.022 38.322,24.710 38.322,24.603 C38.322,24.603 38.321,27.939 38.321,28.240 C38.321,28.561 37.935,28.914 37.059,29.369 C35.340,30.263 26.433,33.917 24.536,34.904 C22.640,35.890 21.587,35.880 20.089,35.166 C18.590,34.452 9.112,30.631 7.404,29.817 C6.551,29.410 6.102,29.067 6.102,28.742 L6.102,25.492 C6.102,25.492 6.553,25.769 7.340,26.119 C10.870,27.684 18.435,30.771 20.603,31.672 Z" class="cls-1"/>
  </g>
</svg>
