<svg xmlns="http://www.w3.org/2000/svg" xmlns:xlink="http://www.w3.org/1999/xlink" preserveAspectRatio="xMidYMid" width="31" height="35" viewBox="0 0 31 35">
  <defs>
    <style>
      .cls-1 {
        fill: #fff;
        fill-rule: evenodd;
      }
    </style>
  </defs>
  <path d="M24.220,31.478 C20.482,31.478 17.439,28.448 17.439,24.724 L17.439,19.248 C17.439,18.948 17.618,18.678 17.893,18.556 L23.916,15.928 C24.111,15.845 24.328,15.845 24.523,15.928 L30.546,18.556 C30.821,18.674 31.000,18.948 31.000,19.248 L31.000,24.721 C31.000,28.448 27.957,31.478 24.220,31.478 ZM29.485,23.673 L24.220,23.673 L24.220,17.445 L18.954,19.742 L18.954,23.673 L24.220,23.673 L24.220,29.971 C27.122,29.971 29.485,27.617 29.485,24.724 L29.485,23.673 ZM5.508,7.563 C5.743,7.271 6.013,7.005 6.311,6.772 C6.424,6.684 6.588,6.697 6.685,6.804 C6.980,7.127 7.508,7.248 7.914,7.083 C8.337,6.910 8.609,6.486 8.593,6.027 C8.588,5.884 8.695,5.760 8.839,5.744 C9.211,5.703 9.585,5.704 9.956,5.747 C10.101,5.764 10.208,5.891 10.199,6.036 C10.173,6.499 10.442,6.931 10.869,7.110 C11.280,7.281 11.811,7.159 12.107,6.833 C12.205,6.725 12.371,6.712 12.484,6.802 C12.773,7.033 13.038,7.299 13.271,7.594 C13.360,7.707 13.347,7.869 13.240,7.967 C12.901,8.276 12.790,8.768 12.963,9.189 C13.132,9.601 13.536,9.867 13.990,9.867 C14.131,9.867 14.294,9.972 14.309,10.111 C14.352,10.485 14.351,10.864 14.307,11.235 C14.290,11.380 14.159,11.489 14.017,11.478 L13.955,11.476 C13.517,11.476 13.109,11.746 12.940,12.147 C12.761,12.573 12.873,13.069 13.218,13.381 C13.326,13.478 13.339,13.643 13.248,13.756 C13.012,14.049 12.742,14.316 12.445,14.548 C12.331,14.636 12.169,14.623 12.070,14.516 C11.775,14.193 11.250,14.071 10.841,14.238 C10.419,14.410 10.146,14.834 10.162,15.292 C10.167,15.436 10.061,15.560 9.917,15.576 C9.735,15.596 9.553,15.606 9.372,15.606 C9.181,15.606 8.990,15.595 8.800,15.572 C8.655,15.556 8.548,15.429 8.557,15.284 C8.583,14.820 8.314,14.389 7.885,14.210 C7.476,14.039 6.945,14.160 6.648,14.487 C6.549,14.596 6.384,14.609 6.270,14.517 C5.980,14.285 5.716,14.018 5.485,13.726 C5.396,13.613 5.409,13.450 5.515,13.353 C5.855,13.043 5.966,12.552 5.793,12.130 C5.619,11.708 5.204,11.442 4.772,11.453 C4.629,11.453 4.462,11.349 4.446,11.209 C4.404,10.835 4.405,10.456 4.448,10.085 C4.466,9.942 4.578,9.837 4.735,9.842 C5.220,9.842 5.643,9.580 5.815,9.173 C5.994,8.747 5.883,8.251 5.537,7.939 C5.430,7.842 5.416,7.677 5.508,7.563 ZM9.386,12.320 C10.299,12.320 11.041,11.580 11.041,10.670 C11.041,9.761 10.299,9.021 9.386,9.021 C8.473,9.021 7.730,9.761 7.730,10.670 C7.730,11.580 8.473,12.320 9.386,12.320 ZM19.451,8.524 C19.270,8.749 19.062,8.954 18.834,9.132 C18.746,9.200 18.621,9.190 18.546,9.108 C18.319,8.860 17.915,8.766 17.601,8.894 C17.275,9.027 17.065,9.353 17.078,9.705 C17.082,9.816 17.000,9.911 16.889,9.923 C16.750,9.939 16.610,9.946 16.470,9.946 C16.323,9.946 16.176,9.938 16.030,9.921 C15.919,9.908 15.837,9.810 15.843,9.698 C15.864,9.342 15.656,9.010 15.327,8.873 C15.012,8.741 14.604,8.835 14.375,9.086 C14.299,9.170 14.172,9.179 14.085,9.109 C13.862,8.930 13.658,8.725 13.481,8.500 C13.412,8.414 13.422,8.289 13.504,8.214 C13.765,7.975 13.851,7.597 13.718,7.273 C13.584,6.948 13.265,6.744 12.932,6.752 C12.823,6.752 12.694,6.672 12.682,6.565 C12.650,6.277 12.650,5.986 12.684,5.700 C12.697,5.590 12.783,5.509 12.904,5.513 C13.277,5.513 13.603,5.312 13.734,4.999 C13.872,4.671 13.787,4.290 13.521,4.050 C13.438,3.975 13.428,3.848 13.498,3.761 C13.679,3.536 13.887,3.331 14.116,3.152 C14.203,3.084 14.329,3.095 14.404,3.177 C14.631,3.425 15.037,3.518 15.349,3.391 C15.674,3.258 15.884,2.932 15.871,2.579 C15.868,2.469 15.950,2.374 16.060,2.362 C16.346,2.330 16.634,2.331 16.919,2.364 C17.031,2.377 17.113,2.474 17.106,2.586 C17.086,2.942 17.293,3.274 17.622,3.412 C17.938,3.543 18.346,3.450 18.574,3.199 C18.649,3.116 18.777,3.106 18.864,3.176 C19.086,3.353 19.290,3.558 19.469,3.784 C19.538,3.871 19.528,3.996 19.446,4.071 C19.185,4.309 19.099,4.687 19.232,5.011 C19.362,5.328 19.673,5.533 20.022,5.533 C20.131,5.533 20.256,5.613 20.268,5.720 C20.300,6.008 20.300,6.299 20.266,6.585 C20.253,6.696 20.152,6.780 20.043,6.772 L19.996,6.770 C19.658,6.770 19.344,6.978 19.215,7.286 C19.077,7.614 19.163,7.995 19.428,8.235 C19.512,8.310 19.522,8.437 19.451,8.524 ZM16.481,4.882 C15.779,4.882 15.208,5.451 15.208,6.151 C15.208,6.850 15.779,7.419 16.481,7.419 C17.183,7.419 17.754,6.850 17.754,6.151 C17.754,5.451 17.183,4.882 16.481,4.882 ZM23.475,14.464 L23.475,1.250 L1.434,1.250 L1.434,33.393 L23.475,33.393 L23.475,32.857 L24.733,32.857 C24.733,32.857 24.732,33.292 24.732,33.437 C24.732,35.000 24.735,35.000 23.624,35.000 C19.687,35.000 6.315,35.000 1.361,35.000 C-0.002,35.000 0.000,35.000 0.000,33.432 C0.000,27.386 0.000,6.577 0.000,1.250 C0.000,0.006 0.000,-0.000 1.449,-0.000 C7.034,-0.000 18.047,-0.000 23.579,-0.000 C24.725,-0.000 24.729,-0.000 24.729,1.339 C24.729,4.621 24.729,14.464 24.729,14.464 C24.671,14.464 24.569,14.464 24.488,14.464 C24.146,14.464 23.842,14.464 23.475,14.464 Z" class="cls-1"/>
</svg>
