<svg xmlns="http://www.w3.org/2000/svg" xmlns:xlink="http://www.w3.org/1999/xlink" preserveAspectRatio="xMidYMid" width="43.687" height="28.562" viewBox="0 0 43.687 28.562">
  <defs>
    <style>
      .cls-1 {
        fill: #e7e7e7;
        fill-rule: evenodd;
      }
    </style>
  </defs>
  <path d="M42.779,10.875 C41.794,10.255 39.532,10.027 37.790,10.336 C37.566,8.793 36.652,7.454 34.989,6.244 L34.033,5.644 L33.395,6.545 C32.579,7.704 32.171,9.310 32.304,10.849 C32.365,11.391 32.554,12.360 33.146,13.212 C32.554,13.511 31.384,13.924 29.842,13.896 L0.185,13.896 L0.127,14.218 C-0.152,15.765 -0.145,20.594 3.186,24.306 C5.718,27.127 9.514,28.558 14.469,28.558 C25.211,28.558 33.158,23.904 36.880,15.444 C38.343,15.472 41.494,15.453 43.113,12.542 C43.155,12.475 43.252,12.300 43.535,11.749 L43.690,11.446 L42.779,10.875 ZM19.389,3.864 L23.898,3.864 L23.898,0.006 L19.389,0.006 L19.389,3.864 ZM19.389,8.494 L23.898,8.494 L23.898,4.636 L19.389,4.636 L19.389,8.494 ZM14.059,8.494 L18.569,8.494 L18.569,4.636 L14.059,4.636 L14.059,8.494 ZM8.730,8.494 L13.240,8.494 L13.240,4.636 L8.730,4.636 L8.730,8.494 ZM3.401,13.124 L7.910,13.124 L7.910,9.266 L3.401,9.266 L3.401,13.124 ZM8.730,13.124 L13.240,13.124 L13.240,9.266 L8.730,9.266 L8.730,13.124 ZM14.059,13.124 L18.569,13.124 L18.569,9.266 L14.059,9.266 L14.059,13.124 ZM19.389,13.124 L23.898,13.124 L23.898,9.266 L19.389,9.266 L19.389,13.124 ZM24.718,13.124 L29.227,13.124 L29.227,9.266 L24.718,9.266 L24.718,13.124 Z" class="cls-1"/>
</svg>
