<svg xmlns="http://www.w3.org/2000/svg" xmlns:xlink="http://www.w3.org/1999/xlink" preserveAspectRatio="xMidYMid" width="33" height="33" viewBox="0 0 33 33">
  <defs>
    <style>
      .cls-1 {
        fill: #e7e7e7;
        fill-rule: evenodd;
      }
    </style>
  </defs>
  <path d="M29.400,-0.000 C27.414,-0.000 25.800,1.614 25.800,3.600 C25.800,4.221 25.958,4.805 26.236,5.316 L20.338,11.213 C19.525,10.580 18.508,10.200 17.400,10.200 C16.292,10.200 15.275,10.580 14.461,11.213 L9.860,6.611 C10.071,6.254 10.200,5.844 10.200,5.400 C10.200,4.076 9.123,3.000 7.800,3.000 C6.476,3.000 5.400,4.076 5.400,5.400 C5.400,6.723 6.476,7.800 7.800,7.800 C8.244,7.800 8.654,7.671 9.011,7.460 L13.613,12.061 C12.980,12.875 12.600,13.892 12.600,15.000 C12.600,16.108 12.980,17.125 13.613,17.938 L6.014,25.537 C5.375,24.957 4.529,24.600 3.600,24.600 C1.614,24.600 -0.000,26.214 -0.000,28.200 C-0.000,30.185 1.614,31.800 3.600,31.800 C5.585,31.800 7.200,30.185 7.200,28.200 C7.200,27.579 7.042,26.994 6.764,26.484 L14.462,18.786 C15.125,19.302 15.926,19.648 16.801,19.758 L16.801,25.854 C15.101,26.141 13.800,27.619 13.800,29.400 C13.800,31.385 15.415,33.000 17.400,33.000 C19.386,33.000 21.000,31.385 21.000,29.400 C21.000,27.620 19.700,26.141 18.001,25.854 L18.001,19.758 C18.875,19.648 19.676,19.302 20.339,18.786 L24.940,23.388 C24.729,23.746 24.600,24.156 24.600,24.600 C24.600,25.923 25.676,27.000 27.000,27.000 C28.323,27.000 29.400,25.923 29.400,24.600 C29.400,23.276 28.323,22.200 27.000,22.200 C26.556,22.200 26.146,22.329 25.788,22.540 L21.187,17.939 C21.819,17.125 22.200,16.108 22.200,15.000 C22.200,13.892 21.819,12.875 21.187,12.062 L26.986,6.263 C27.625,6.843 28.470,7.200 29.400,7.200 C31.385,7.200 33.000,5.585 33.000,3.600 C33.000,1.614 31.385,-0.000 29.400,-0.000 L29.400,-0.000 ZM6.600,5.400 C6.600,4.738 7.138,4.200 7.800,4.200 C8.462,4.200 9.000,4.738 9.000,5.400 C9.000,6.062 8.462,6.600 7.800,6.600 C7.138,6.600 6.600,6.062 6.600,5.400 L6.600,5.400 ZM3.600,30.600 C2.276,30.600 1.200,29.523 1.200,28.200 C1.200,26.876 2.276,25.800 3.600,25.800 C4.924,25.800 6.000,26.876 6.000,28.200 C6.000,29.523 4.924,30.600 3.600,30.600 L3.600,30.600 ZM19.800,29.400 C19.800,30.723 18.723,31.800 17.400,31.800 C16.076,31.800 15.000,30.723 15.000,29.400 C15.000,28.076 16.076,27.000 17.400,27.000 C18.723,27.000 19.800,28.076 19.800,29.400 L19.800,29.400 ZM17.400,18.600 C15.415,18.600 13.800,16.985 13.800,15.000 C13.800,13.015 15.415,11.400 17.400,11.400 C19.385,11.400 21.000,13.015 21.000,15.000 C21.000,16.985 19.385,18.600 17.400,18.600 L17.400,18.600 ZM28.200,24.600 C28.200,25.262 27.662,25.800 27.000,25.800 C26.338,25.800 25.800,25.262 25.800,24.600 C25.800,23.938 26.338,23.400 27.000,23.400 C27.662,23.400 28.200,23.938 28.200,24.600 L28.200,24.600 ZM29.400,6.000 C28.076,6.000 27.000,4.924 27.000,3.600 C27.000,2.276 28.076,1.200 29.400,1.200 C30.723,1.200 31.800,2.276 31.800,3.600 C31.800,4.924 30.723,6.000 29.400,6.000 L29.400,6.000 Z" class="cls-1"/>
</svg>
