<svg xmlns="http://www.w3.org/2000/svg" xmlns:xlink="http://www.w3.org/1999/xlink" preserveAspectRatio="xMidYMid" width="36" height="35" viewBox="0 0 36 35">
  <defs>
    <style>
      .cls-1 {
        fill: #e7e7e7;
        fill-rule: evenodd;
      }
    </style>
  </defs>
  <path d="M35.626,27.598 L23.467,27.598 L23.728,29.354 L23.728,29.354 L24.141,32.131 L25.696,32.131 C26.002,32.131 26.250,32.384 26.250,32.693 L26.250,35.000 L9.761,35.000 L9.761,32.693 C9.761,32.384 10.009,32.131 10.315,32.131 L11.870,32.131 L12.283,29.354 L12.283,29.354 L12.544,27.598 L0.385,27.598 C0.170,27.598 0.000,27.426 0.000,27.208 L0.000,0.390 C0.000,0.172 0.170,-0.000 0.385,-0.000 L35.615,-0.000 C35.830,-0.000 36.000,0.172 36.000,0.390 L36.000,27.208 C36.011,27.426 35.841,27.598 35.626,27.598 ZM33.885,2.272 L2.115,2.272 L2.115,14.789 L5.908,17.836 C6.295,17.621 6.732,17.488 7.204,17.488 C7.408,17.488 7.605,17.515 7.797,17.558 L9.736,14.802 C9.484,14.383 9.331,13.896 9.331,13.369 C9.331,11.841 10.551,10.603 12.056,10.603 C13.562,10.603 14.782,11.841 14.782,13.369 C14.782,13.508 14.761,13.642 14.742,13.776 L18.828,16.317 C19.273,15.995 19.815,15.802 20.403,15.802 C20.869,15.802 21.302,15.931 21.685,16.141 L25.207,13.278 C25.142,13.042 25.097,12.799 25.097,12.543 C25.097,11.015 26.317,9.777 27.823,9.777 C28.951,9.777 29.919,10.473 30.333,11.464 L33.885,11.464 L33.885,2.272 ZM33.885,13.621 L30.333,13.621 C29.919,14.613 28.951,15.308 27.823,15.308 C27.355,15.308 26.921,15.178 26.536,14.967 L23.016,17.821 C23.082,18.060 23.129,18.307 23.129,18.567 C23.129,20.095 21.909,21.333 20.403,21.333 C18.898,21.333 17.677,20.095 17.677,18.567 C17.677,18.427 17.698,18.292 17.718,18.158 L13.633,15.618 C13.187,15.941 12.645,16.134 12.056,16.134 C11.852,16.134 11.654,16.107 11.462,16.064 L9.525,18.821 C9.777,19.240 9.930,19.727 9.930,20.254 C9.930,21.781 8.710,23.020 7.204,23.020 C5.699,23.020 4.479,21.781 4.479,20.254 C4.479,19.999 4.524,19.758 4.587,19.523 L2.115,17.532 L2.115,25.338 L33.885,25.338 L33.885,13.621 ZM18.718,4.395 L24.735,4.395 L24.735,5.175 L18.718,5.175 L18.718,4.395 ZM8.302,4.395 L17.689,4.395 L17.689,5.175 L8.302,5.175 L8.302,4.395 ZM20.901,6.759 L8.302,6.759 L8.302,5.979 L20.901,5.979 L20.901,6.759 Z" class="cls-1"/>
</svg>
