<svg xmlns="http://www.w3.org/2000/svg" xmlns:xlink="http://www.w3.org/1999/xlink" preserveAspectRatio="xMidYMid" width="32.562" height="32.437" viewBox="0 0 16.281 16.219">
  <defs>
    <style>
      .cls-1 {
        fill: #f5f5f5;
        fill-rule: evenodd;
      }
    </style>
  </defs>
  <path d="M11.642,6.954 L11.642,4.638 L16.297,4.638 L16.297,6.954 L11.642,6.954 ZM12.806,0.005 L15.133,0.005 L15.133,3.480 L12.806,3.480 L12.806,0.005 ZM5.824,10.429 L10.478,10.429 L10.478,12.745 L5.824,12.745 L5.824,10.429 ZM6.987,0.005 L9.315,0.005 L9.315,9.270 L6.987,9.270 L6.987,0.005 ZM0.006,3.480 L4.660,3.480 L4.660,5.796 L0.006,5.796 L0.006,3.480 ZM1.169,0.005 L3.497,0.005 L3.497,2.322 L1.169,2.322 L1.169,0.005 ZM3.497,16.219 L1.169,16.219 L1.169,6.954 L3.497,6.954 L3.497,16.219 ZM9.315,16.219 L6.987,16.219 L6.987,13.903 L9.315,13.903 L9.315,16.219 ZM15.133,16.219 L12.806,16.219 L12.806,8.112 L15.133,8.112 L15.133,16.219 Z" class="cls-1"/>
</svg>
