<svg xmlns="http://www.w3.org/2000/svg" xmlns:xlink="http://www.w3.org/1999/xlink" preserveAspectRatio="xMidYMid" width="37.25" height="37.062" viewBox="0 0 18.625 18.531">
  <defs>
    <style>
      .cls-1 {
        fill: #f5f5f5;
        fill-rule: evenodd;
      }
    </style>
  </defs>
  <path d="M17.449,18.519 L1.159,18.519 C0.513,18.519 -0.009,17.999 -0.009,17.357 L-0.009,1.158 C-0.009,0.517 0.513,-0.004 1.159,-0.004 L17.449,-0.004 C18.094,-0.004 18.617,0.517 18.617,1.158 L18.617,17.357 C18.617,17.999 18.094,18.519 17.449,18.519 ZM6.934,16.195 L16.280,16.195 L16.280,6.901 L6.934,6.901 L6.934,16.195 ZM4.598,16.195 L4.598,6.901 L2.327,6.901 L2.327,16.195 L4.598,16.195 ZM2.327,2.320 L2.327,4.578 L16.280,4.578 L16.280,2.320 L2.327,2.320 Z" class="cls-1"/>
</svg>
