<svg xmlns="http://www.w3.org/2000/svg" xmlns:xlink="http://www.w3.org/1999/xlink" preserveAspectRatio="xMidYMid" width="50" height="50" viewBox="0 0 25 25">
  <defs>
    <style>
      .cls-1 {
        fill: #61cfb2;
        filter: url(#drop-shadow-1);
        fill-rule: evenodd;
      }
    </style>

    <filter id="drop-shadow-1" filterUnits="userSpaceOnUse">
      <feOffset dx="0.707" dy="0.707" in="SourceAlpha"/>
      <feGaussianBlur stdDeviation="1.732" result="dropBlur"/>
      <feFlood flood-opacity="0.2"/>
      <feComposite operator="in" in2="dropBlur" result="dropShadowComp"/>
      <feComposite in="SourceGraphic" result="shadowed"/>
    </filter>
  </defs>
  <path d="M21.006,11.313 L19.094,11.074 C18.921,10.267 18.602,9.516 18.168,8.845 L19.352,7.322 C19.527,7.098 19.507,6.779 19.306,6.579 L18.417,5.690 C18.217,5.489 17.899,5.469 17.675,5.644 L16.151,6.828 C15.480,6.395 14.728,6.075 13.923,5.902 L13.683,3.990 C13.648,3.708 13.408,3.497 13.125,3.497 L11.868,3.497 C11.584,3.497 11.345,3.708 11.310,3.990 L11.070,5.902 C10.265,6.075 9.513,6.395 8.842,6.828 L7.318,5.644 C7.094,5.469 6.776,5.489 6.576,5.690 L5.686,6.579 C5.485,6.779 5.466,7.098 5.640,7.322 L6.825,8.845 C6.391,9.516 6.072,10.267 5.899,11.074 L3.988,11.313 C3.705,11.348 3.494,11.588 3.494,11.871 L3.494,13.128 C3.494,13.412 3.705,13.651 3.988,13.686 L5.899,13.925 C6.072,14.732 6.391,15.483 6.825,16.154 L5.640,17.677 C5.466,17.901 5.485,18.220 5.686,18.421 L6.576,19.310 C6.776,19.510 7.094,19.530 7.318,19.356 L8.842,18.171 C9.513,18.605 10.265,18.924 11.070,19.097 L11.310,21.009 C11.345,21.290 11.584,21.502 11.868,21.502 L13.125,21.502 C13.408,21.502 13.648,21.290 13.683,21.009 L13.923,19.097 C14.728,18.924 15.480,18.605 16.151,18.171 L17.675,19.356 C17.899,19.530 18.217,19.510 18.417,19.310 L19.306,18.421 C19.507,18.220 19.527,17.901 19.352,17.677 L18.168,16.154 C18.602,15.483 18.921,14.732 19.094,13.925 L21.006,13.686 C21.288,13.651 21.499,13.412 21.499,13.128 L21.499,11.871 C21.499,11.588 21.288,11.348 21.006,11.313 ZM12.496,14.750 C11.254,14.750 10.246,13.743 10.246,12.500 C10.246,11.257 11.254,10.249 12.496,10.249 C13.739,10.249 14.747,11.257 14.747,12.500 C14.747,13.743 13.739,14.750 12.496,14.750 Z" class="cls-1"/>
</svg>
