<svg xmlns="http://www.w3.org/2000/svg" xmlns:xlink="http://www.w3.org/1999/xlink" preserveAspectRatio="xMidYMid" width="37.25" height="37.062" viewBox="0 0 18.625 18.531">
  <defs>
    <style>
      .cls-1 {
        fill: #f5f5f5;
        fill-rule: evenodd;
      }
    </style>
  </defs>
  <path d="M1.175,0.006 C0.533,0.006 0.011,0.524 0.011,1.163 L0.011,11.580 L0.011,13.895 C0.011,14.534 0.533,15.052 1.175,15.052 L6.995,15.052 L5.831,17.367 L5.831,17.367 L5.831,18.524 L12.814,18.524 L12.814,17.367 L12.814,17.367 L11.651,15.052 L17.470,15.052 C18.113,15.052 18.634,14.534 18.634,13.895 L18.634,11.580 L18.634,1.163 C18.634,0.524 18.113,0.006 17.470,0.006 L1.175,0.006 ZM2.339,10.423 L2.339,2.321 L16.306,2.321 L16.306,10.423 L2.339,10.423 Z" class="cls-1"/>
</svg>
