<?xml version="1.0" encoding="utf-8"?>
<!-- Generator: Adobe Illustrator 19.0.0, SVG Export Plug-In . SVG Version: 6.00 Build 0)  -->
<svg version="1.1" id="Layer_1" xmlns="http://www.w3.org/2000/svg" xmlns:xlink="http://www.w3.org/1999/xlink" x="0px" y="0px"
	 viewBox="0 0 1136 368" style="enable-background:new 0 0 1136 368;" xml:space="preserve">
<style type="text/css">
	.st0{display:none;}
	.st1{display:none;stroke:#000000;stroke-miterlimit:10;}
	.st2{fill:none;stroke:#FFFFFF;stroke-width:36;stroke-linejoin:round;stroke-miterlimit:10;}
	.st3{fill:none;stroke:#FFFFFF;stroke-width:40.5651;stroke-linejoin:round;stroke-miterlimit:10;}
	.st4{fill:#FFFFFF;}
</style>
<rect x="-106" y="-212" class="st0" width="1380" height="803"/>
<rect x="-274" y="-274" class="st1" width="1754" height="898"/>
<g>
	<path class="st2" d="M532.7,66.4c25.2-20,57-31.9,91.6-31.9c81.4,0,147.5,66,147.5,147.5c0,81.4-66,147.5-147.5,147.5
		c-39.6,0-75.6-15.6-102.1-41.1"/>
	<path class="st3" d="M562.7,230c-10.2-13-16.2-29.4-16.1-47.2c0.3-41.9,34.4-75.6,76.3-75.3c41.9,0.3,75.6,34.4,75.3,76.3
		c-0.1,20.4-8.3,38.8-21.5,52.4"/>
	<g>
		<path class="st4" d="M541.1,86c9.2-8.2,19.5-15.2,30.7-20.5c11.2-5.4,23.2-8.9,35.5-10.9c6.2-0.9,12.3-1.4,18.6-1.4
			c6.1,0,12.5,0.4,18.6,1.2c6.2,0.9,12.3,2.2,18.3,4c6,1.8,11.9,3.9,17.5,6.6c5.7,2.7,11.2,5.6,16.4,9.1c5.2,3.5,10.3,7.2,15,11.4
			c4.7,4.2,9.1,8.6,13.2,13.4c4,4.8,7.8,9.9,11.1,15.2c3.3,5.4,6.3,10.9,8.8,16.7c2.5,5.8,4.7,11.7,6.3,17.8
			c3.3,12.1,4.9,24.8,4.5,37.4c0,3-0.3,6.3-0.5,9.5c-0.4,3.1-0.7,6.3-1.3,9.4c-0.3,1.6-0.5,3.1-0.9,4.7l-1,4.6
			c-0.4,1.5-0.8,3-1.2,4.6l-0.6,2.3l-0.7,2.2c-1.9,6-4.4,11.9-7.1,17.5c-2.8,5.7-6,11.1-9.6,16.3c-3.6,5.2-7.6,10.1-11.9,14.8
			c-4.3,4.7-9,9-13.9,12.9c-4.9,4-10.2,7.6-15.6,10.8c-5.4,3.3-11.2,6-17,8.4c-5.9,2.4-11.9,4.3-18.1,5.8
			c-6.2,1.6-12.4,2.5-18.8,3.1l-4.7,0.4c-1.6,0.1-3.2,0.1-4.8,0.2l-2.4,0.1l-2.4,0c-1.5,0-3.1,0-4.6-0.1c-6.5-0.4-12.7-1.1-19-2.3
			c-6.2-1.3-12.4-2.9-18.4-5c-6-2.2-11.8-4.7-17.4-7.7c-5.6-3-11-6.4-16.1-10.1c-5.1-3.8-9.9-7.9-14.5-12.4l5.5,0l-28.6,27.5
			l0.1-5.7c5.7,5.5,11.6,10.7,17.9,15.5c6.4,4.7,13,9,20,12.7c7,3.7,14.2,7,21.6,9.7c7.4,2.6,15,4.9,22.8,6.5
			c1.9,0.4,3.9,0.7,5.8,1.1l2.9,0.5c1,0.1,2,0.2,2.9,0.4c2,0.2,3.9,0.5,5.9,0.7l5.9,0.4l1.5,0.1l1.5,0l3,0.1l3,0.1l0.7,0l0.7,0
			l1.5,0l6.1-0.1l5.8-0.4c7.8-0.7,15.7-1.8,23.4-3.7c7.7-1.8,15.3-4.1,22.6-7c7.3-2.9,14.5-6.3,21.3-10.3c6.8-4,13.5-8.3,19.6-13.3
			l2.3-1.8l2.3-1.9c1.5-1.3,3-2.6,4.5-3.9l4.3-4.1l1.1-1l1-1l2.1-2.2c2.9-2.9,5.3-5.9,7.9-8.8c2.4-3.1,5-6.2,7.2-9.4
			c2.4-3.2,4.4-6.6,6.6-9.9c1-1.7,2-3.4,3-5.1c0.5-0.9,1-1.7,1.5-2.6l1.3-2.6l1.3-2.6l0.7-1.3l0.6-1.4l2.4-5.4
			c0.8-1.8,1.4-3.7,2.2-5.5c0.4-0.9,0.7-1.8,1.1-2.8l0.9-2.8l0.9-2.8c0.3-0.9,0.6-1.9,0.9-2.8l1.6-5.7c0.5-1.9,0.9-3.9,1.3-5.8
			c0.2-1,0.5-1.9,0.6-2.9l0.5-2.9c1.5-7.8,2.2-15.7,2.6-23.6l0.1-3l0-1.5l0-0.7c0,0,0-0.2,0-0.1l0-0.2l0-0.4l-0.1-6.1
			c0-2.1-0.2-4-0.3-5.9c-0.1-2-0.2-3.9-0.5-5.9l-0.7-5.9l-1-5.9c-0.3-2-0.8-3.9-1.2-5.8c-0.4-1.9-0.8-3.9-1.4-5.8l-1.6-5.8l-1.8-5.7
			c-0.6-1.9-1.3-3.8-2-5.6c-0.7-1.8-1.4-3.7-2.2-5.5l-2.4-5.5c-0.9-1.8-1.8-3.6-2.6-5.4c-0.8-1.8-1.8-3.5-2.8-5.3l-1.5-2.6l-0.7-1.3
			l-0.8-1.3l-3.2-5.1c-1.1-1.7-2.3-3.3-3.4-4.9c-0.6-0.8-1.1-1.6-1.7-2.4l-1.8-2.4c-1.2-1.6-2.4-3.2-3.7-4.7l-3.9-4.6
			c-1.3-1.5-2.7-2.9-4.1-4.4l-2-2.2l-0.1-0.1c0,0-0.1-0.1-0.1-0.1l-0.3-0.3l-0.5-0.5l-1.1-1.1c-1.5-1.4-2.9-2.8-4.4-4.2
			c-5.8-5.3-12.2-10.3-18.7-14.8c-6.6-4.4-13.6-8.4-20.7-12c-7.2-3.4-14.7-6.4-22.3-8.8c-7.7-2.3-15.5-4.2-23.4-5.5
			c-7.9-1.2-15.9-2-24-2.1l-0.8,0l-0.3,0l-0.4,0l-1.5,0l-3,0c-1,0-2,0-3,0.1l-3,0.2c-4,0.2-8,0.6-12,1.1
			c-15.9,2.1-31.7,6.3-46.4,12.9c-14.8,6.5-28.5,15.3-40.9,25.7c12.1-10.8,25.6-20,40.3-27c14.7-7,30.5-11.7,46.6-14.2
			c4-0.5,8.1-1.1,12.2-1.3l3.1-0.2c1-0.1,2-0.1,3-0.1l3-0.1l1.5,0l0.4,0c0.2,0,0.3,0,0.4,0l0.8,0c8.2,0,16.3,0.6,24.4,1.7
			c8.1,1.2,16.1,2.9,24,5.2c7.9,2.4,15.5,5.3,23,8.7c7.4,3.5,14.6,7.5,21.5,12c6.8,4.6,13.3,9.5,19.6,15c1.5,1.4,3,2.8,4.5,4.1
			l1.1,1l0.6,0.5l0.3,0.3l0.2,0.2l0.1,0.1l2.1,2.2c1.4,1.5,2.9,2.9,4.2,4.5l4.1,4.6c5.3,6.3,10.2,12.9,14.5,20l0.8,1.3L772,96
			l1.5,2.7c1,1.8,2.1,3.6,3,5.4c0.9,1.8,1.9,3.7,2.8,5.5l2.5,5.6c0.9,1.9,1.6,3.8,2.3,5.7c0.8,1.9,1.5,3.8,2.1,5.8l2,5.9l1.7,6
			c0.6,2,1,4,1.5,6c0.5,2,1,4,1.3,6.1l1.1,6.1l0.8,6.1c0.3,2,0.4,4.1,0.6,6.2c0.1,2.1,0.4,4.2,0.4,6.2l0.2,6.1l0,0.4l0,0.2l0,0.3
			l0,0.8l0,1.5l-0.1,3.1l-0.1,3.1l-0.2,3.1c-0.2,2.1-0.2,4.1-0.5,6.2l-0.7,6.2c-0.2,2.1-0.7,4.1-1,6.1l-0.5,3.1c-0.2,1-0.4,2-0.7,3
			c-0.5,2-0.9,4-1.4,6l-1.6,6c-0.3,1-0.6,2-0.9,3l-1,2.9l-1,2.9c-0.3,1-0.7,1.9-1.1,2.9c-0.7,1.9-1.5,3.9-2.2,5.8l-2.5,5.7l-0.6,1.4
			l-0.7,1.4l-1.4,2.8l-1.4,2.8c-0.5,0.9-1,1.8-1.5,2.7c-1,1.8-2,3.6-3.1,5.4c-2.2,3.5-4.4,7-6.8,10.4c-2.3,3.4-4.9,6.6-7.5,9.9
			c-2.7,3.1-5.4,6.5-8.2,9.3l-2.1,2.2l-1.1,1.2l-1.1,1.1l-4.5,4.3c-1.5,1.4-3.1,2.7-4.7,4.1l-2.4,2l-2.4,1.9
			c-6.4,5.2-13.4,9.8-20.5,14c-7.1,4.2-14.7,7.7-22.4,10.8c-7.7,3.1-15.7,5.5-23.7,7.4c-8.1,2-16.3,3.1-24.6,3.9l-6.3,0.5l-6.1,0.2
			l-1.5,0l-0.9,0l-0.8,0l-3.1-0.1l-3.1-0.1l-1.6,0l-1.6-0.1l-6.2-0.4c-2.1-0.2-4.1-0.5-6.2-0.7c-1-0.1-2.1-0.2-3.1-0.4l-3.1-0.5
			c-2-0.4-4.1-0.6-6.1-1.1c-8.1-1.6-16.1-4-23.9-6.7c-7.8-2.8-15.3-6.3-22.7-10.2c-7.3-4-14.2-8.5-20.9-13.4
			c-6.6-5-12.9-10.5-18.8-16.3c-1.6-1.5-1.6-4-0.1-5.6l0.1-0.1l0,0l28.7-27.4c1.5-1.5,4-1.5,5.5,0l0,0c4.3,4.2,8.8,8.1,13.6,11.7
			c4.8,3.5,9.9,6.7,15.2,9.6c5.3,2.8,10.8,5.2,16.4,7.3c5.6,2,11.4,3.6,17.3,4.9c5.9,1.2,11.9,1.9,17.7,2.3c1.5,0.1,3.1,0.1,4.6,0.1
			l2.2,0.1l2.2-0.1c1.5,0,3,0,4.5-0.1l4.5-0.3c6-0.6,11.9-1.4,17.7-2.9c5.8-1.4,11.6-3.1,17.1-5.4c5.6-2.2,11-4.8,16.2-7.8
			c5.2-3,10.2-6.3,14.9-10.1c4.7-3.7,9.2-7.7,13.3-12.1c4.1-4.4,8-9,11.4-13.9c3.4-4.9,6.6-10,9.3-15.4c2.7-5.4,5.1-10.9,7-16.6
			l0.7-2.1l0.6-2.2c0.4-1.4,0.9-2.9,1.2-4.3l1-4.4c0.4-1.5,0.6-3,0.9-4.4c0.6-3,0.9-6,1.3-8.9c0.2-3,0.6-5.9,0.6-9
			c0.5-12.1-0.9-24.2-3.9-35.9c-1.5-5.9-3.5-11.6-5.8-17.2c-2.3-5.6-5.1-11-8.2-16.2c-3.1-5.2-6.7-10.1-10.5-14.8
			c-3.8-4.7-8.1-9.1-12.5-13.2c-4.5-4.1-9.3-7.8-14.3-11.3c-5-3.4-10.3-6.4-15.8-9.1c-5.5-2.7-11.2-4.8-17-6.7
			c-5.8-1.8-11.8-3.2-17.8-4.2c-3-0.4-6-0.9-9.1-1.1c-3-0.3-6.1-0.4-9.2-0.5c-6.1-0.1-12.2,0.3-18.3,1c-6.1,0.8-12.1,2-18,3.7
			l-4.4,1.3l-4.4,1.5c-1.5,0.5-2.9,1.1-4.3,1.6l-2.1,0.8l-2.1,0.9C561,71.4,550.5,78.1,541.1,86z"/>
	</g>
	<g>
		<path class="st4" d="M580.8,220.3c-3.6-3.8-6.8-8.1-9.3-12.9c-2.5-4.7-4.2-9.8-5.2-15.1c-0.5-2.7-0.8-5.3-0.9-8
			c0-2.7-0.1-5.3,0.3-8l0.2-2c0-0.3,0.1-0.7,0.1-1l0.2-1l0.8-4c0.3-1.3,0.8-2.6,1.2-3.9c0.2-0.6,0.4-1.3,0.6-1.9l0.8-1.9l0.8-1.9
			l0.4-0.9c0.1-0.3,0.3-0.6,0.5-0.9l2-3.6c0.7-1.2,1.5-2.3,2.3-3.4c0.4-0.6,0.8-1.1,1.2-1.7l1.3-1.6l1.3-1.6l0.7-0.8l0.7-0.7
			l2.9-2.9c1-0.9,2.1-1.7,3.2-2.6c0.5-0.4,1-0.9,1.6-1.3l1.7-1.1l1.7-1.1l0.9-0.6l0.9-0.5l3.6-1.9c1.2-0.6,2.5-1.1,3.8-1.6
			c0.6-0.2,1.3-0.5,1.9-0.8l2-0.6l2-0.6c0.7-0.2,1.3-0.4,2-0.5l4.1-0.8c0.7-0.2,1.4-0.2,2-0.3l2.1-0.2l2.1-0.2l0.3,0l0.1,0
			c0.1,0-0.1,0,0.2,0l0.1,0l0.5,0l1,0l4,0l4.2,0.5c0.7,0.1,1.4,0.1,2.1,0.3l2,0.4l2,0.4l1,0.2l1,0.3l4,1.3c1.3,0.5,2.6,1.1,3.8,1.6
			c0.6,0.3,1.3,0.5,1.9,0.9l1.8,1l1.8,1l0.9,0.5c0.3,0.2,0.6,0.4,0.9,0.6l3.4,2.4c1.1,0.8,2.1,1.8,3.2,2.7c0.5,0.5,1.1,0.9,1.6,1.4
			l1.5,1.5l1.5,1.5l0.7,0.8l0.7,0.8l2.6,3.3c0.8,1.1,1.5,2.3,2.3,3.5c0.4,0.6,0.8,1.2,1.1,1.8l1,1.9l1,1.9l0.5,0.9l0.4,1l1.6,3.9
			c0.5,1.3,0.8,2.7,1.2,4c0.2,0.7,0.4,1.3,0.6,2l0.4,2.1l0.4,2.1c0.1,0.7,0.3,1.4,0.3,2.1l0.4,4.2l0.1,1l0,1.1c0,0.7,0,1.3,0,2
			c-0.1,2.9-0.4,5.7-0.8,8.5c-0.5,2.8-1.2,5.5-2,8.2c-0.9,2.7-1.9,5.3-3.2,7.8c-1.3,2.5-2.7,4.9-4.3,7.3c-1.6,2.3-3.4,4.5-5.3,6.6
			l0-5c9.9,10.4,19.9,20.7,29.7,31.2l-5.7,0c3-3.3,5.9-6.7,8.5-10.3c2.5-3.7,4.9-7.4,6.9-11.4c2-4,3.7-8.1,5.1-12.3
			c1.4-4.2,2.5-8.5,3.3-12.9c0.7-4.4,1.3-8.8,1.4-13.2c0.1-1.1,0-2.2,0-3.3l0-1.7l0-0.4l0-0.3l0-0.9l-0.2-3.5l-0.3-3.2
			c-0.9-8.8-3.1-17.5-6.6-25.7c-1.7-4.1-3.7-8.1-6-11.9c-2.3-3.8-4.8-7.5-7.7-10.9l-1.1-1.3l-1.1-1.2c-0.8-0.8-1.5-1.7-2.2-2.5
			l-2.4-2.4l-0.6-0.6l-0.6-0.5l-1.3-1.2c-1.7-1.6-3.4-2.9-5.1-4.3c-1.8-1.3-3.5-2.7-5.4-3.9c-1.8-1.3-3.7-2.4-5.6-3.6
			c-2-1.1-3.9-2.2-5.9-3.1c-2-1-4-1.8-6.1-2.7c-1-0.4-2.1-0.8-3.1-1.2c-1-0.4-2.1-0.7-3.2-1.1c-2.1-0.7-4.3-1.2-6.4-1.8
			c-1.1-0.3-2.2-0.5-3.3-0.7c-0.5-0.1-1.1-0.2-1.6-0.3l-1.7-0.3c-4.4-0.7-8.9-1.1-13.3-1.2l-1.7,0l-0.8,0l-0.4,0c0,0-0.2,0,0,0
			l-0.1,0l-0.2,0l-3.5,0.1c-1.2,0-2.2,0.2-3.3,0.3c-1.1,0.1-2.2,0.2-3.3,0.3c-4.4,0.5-8.8,1.5-13.1,2.6c-8.6,2.4-16.9,6-24.5,10.8
			c-3.8,2.4-7.4,5.1-10.8,8l-2.5,2.2c-0.8,0.7-1.6,1.6-2.4,2.3l-1.2,1.2l-1.1,1.2c-0.8,0.8-1.6,1.7-2.4,2.5c-2.9,3.3-5.7,7-8.2,10.7
			c-2.4,3.8-4.6,7.8-6.6,11.8c-1.9,4.1-3.5,8.4-4.8,12.7c-1.2,4.4-2.2,8.8-2.9,13.3c-0.6,4.5-1,9.1-1,13.6c0,1.1,0,2.3,0.1,3.4
			c0,1.2,0.1,2.3,0.2,3.4c0.1,2.3,0.4,4.5,0.7,6.8c1.3,9,3.8,18,7.7,26.3c3.8,8.4,8.9,16.2,15,23.2c-6.4-6.7-12-14.2-16.3-22.6
			c-4.3-8.3-7.3-17.3-9-26.5c-0.4-2.3-0.8-4.6-1-7c-0.1-1.2-0.3-2.4-0.3-3.5c-0.1-1.2-0.2-2.3-0.2-3.5c-0.2-4.7,0-9.4,0.5-14.1
			c0.5-4.7,1.4-9.4,2.6-13.9c1.2-4.6,2.8-9.1,4.6-13.4c1.9-4.3,4.1-8.6,6.6-12.6c2.5-4,5.3-7.9,8.4-11.6c0.8-0.9,1.5-1.7,2.3-2.6
			l1.2-1.4l1.2-1.3c0.8-0.8,1.6-1.7,2.5-2.5l2.6-2.4c3.6-3.1,7.3-6.1,11.3-8.7c8-5.3,16.7-9.4,25.9-12.1c4.6-1.3,9.3-2.5,14-3.1
			c1.2-0.2,2.4-0.3,3.6-0.4c1.2-0.1,2.5-0.3,3.6-0.3l3.5-0.2l0.2,0l0.3,0l0.4,0l0.9,0l1.8,0c4.8,0,9.6,0.3,14.4,1.1l1.8,0.3
			c0.6,0.1,1.2,0.2,1.8,0.3c1.2,0.2,2.4,0.4,3.5,0.7c2.3,0.6,4.7,1.1,7,1.8c1.2,0.3,2.3,0.7,3.4,1.1c1.1,0.4,2.3,0.8,3.4,1.2
			c2.2,0.9,4.5,1.8,6.6,2.9c2.2,1,4.3,2.2,6.4,3.3c2.1,1.2,4.2,2.4,6.2,3.8c2,1.3,3.9,2.8,5.9,4.2c1.9,1.6,3.9,3.1,5.5,4.7l1.3,1.2
			l0.7,0.7l0.6,0.6l2.6,2.6c0.8,0.9,1.6,1.8,2.4,2.7l1.2,1.3l1.2,1.4c3.1,3.7,5.9,7.6,8.4,11.8c2.6,4.1,4.7,8.4,6.6,12.9
			c1.9,4.4,3.4,9,4.7,13.7c1.3,4.7,2.1,9.4,2.6,14.3l0.4,3.7l0.2,3.5l0,0.9l0,0.5l0,0.5l0,1.8c0,1.2,0,2.4-0.1,3.6
			c-0.1,4.8-0.7,9.6-1.6,14.4c-0.9,4.8-2.1,9.4-3.6,14c-1.5,4.6-3.5,9-5.6,13.3c-2.2,4.3-4.8,8.4-7.5,12.4
			c-2.8,3.9-5.9,7.6-9.2,11.1c-1.5,1.6-3.9,1.6-5.5,0.2c-0.1-0.1-0.1-0.1-0.2-0.2l0,0c-9.8-10.5-19.6-21-29.4-31.5l0,0
			c-1.3-1.4-1.3-3.6,0-5c1.7-1.8,3.3-3.7,4.7-5.7c1.4-2,2.7-4.1,3.8-6.3c1.1-2.2,2.1-4.5,2.9-6.8c0.8-2.3,1.4-4.7,1.9-7.2
			c0.4-2.4,0.7-4.9,0.8-7.3c0-0.6,0-1.3,0-2l0-0.9l-0.1-0.9l-0.2-3.7c0-0.6-0.2-1.2-0.2-1.8l-0.3-1.8l-0.3-1.8
			c-0.1-0.6-0.3-1.2-0.5-1.8c-0.3-1.2-0.6-2.4-1-3.6l-1.3-3.5l-0.3-0.9l-0.4-0.8l-0.8-1.7l-0.8-1.7c-0.3-0.6-0.6-1.1-1-1.6
			c-0.7-1-1.3-2.1-2-3.2l-2.3-3l-0.6-0.7l-0.6-0.7l-1.3-1.4l-1.3-1.4c-0.4-0.5-0.9-0.8-1.4-1.3c-0.9-0.8-1.8-1.7-2.8-2.5l-3-2.2
			c-0.3-0.2-0.5-0.4-0.8-0.5l-0.8-0.5l-1.6-1l-1.6-1c-0.5-0.3-1.1-0.5-1.7-0.8c-1.1-0.5-2.3-1.1-3.4-1.6l-3.5-1.3l-0.9-0.3l-0.9-0.2
			l-1.8-0.5l-1.8-0.5c-0.6-0.2-1.2-0.2-1.8-0.3l-3.6-0.5l-4-0.2l-1,0l-0.5,0l-0.1,0c0.2,0,0,0,0.1,0l-0.1,0l-0.2,0l-1.9,0.1
			l-1.9,0.1c-0.6,0-1.3,0-1.9,0.2l-3.7,0.6c-0.6,0.1-1.2,0.2-1.8,0.4l-1.8,0.5l-1.8,0.5c-0.6,0.2-1.2,0.4-1.8,0.6
			c-1.2,0.5-2.4,0.9-3.5,1.4l-3.4,1.7l-0.9,0.4l-0.8,0.5l-1.6,1l-1.6,1c-0.5,0.3-1,0.8-1.5,1.1c-1,0.8-2.1,1.5-3,2.3l-2.8,2.6
			l-0.7,0.7l-0.6,0.7l-1.3,1.4l-1.3,1.4c-0.4,0.5-0.8,1-1.2,1.5c-0.7,1-1.6,2-2.3,3.1l-2,3.3c-0.2,0.3-0.3,0.5-0.5,0.8l-0.4,0.9
			l-0.8,1.7l-0.8,1.7c-0.3,0.6-0.4,1.2-0.7,1.8c-0.4,1.2-0.9,2.4-1.3,3.6l-1,3.7l-0.2,0.9c-0.1,0.3-0.1,0.6-0.2,0.9l-0.3,1.9
			c-0.5,2.5-0.5,5.2-0.6,7.8c0,2.5,0.2,5.2,0.5,7.7c0.8,5.1,2.2,10.2,4.4,15C574.4,211.8,577.3,216.3,580.8,220.3z"/>
	</g>
</g>
<g>
	<path class="st4" d="M844,147h17v16.3c0,3.8-0.2,6.7-0.2,6.7h0.4c4.2-13,15-23.9,29.2-23.9c2.4,0,4.7,0.4,4.7,0.4V164
		c0,0-2.5-0.5-5.2-0.5c-11.2,0-21.5,8-25.7,21.6c-1.6,5.3-2.1,10.9-2.1,16.5V239h-18V147z"/>
	<path class="st4" d="M912,111h18v41.9c0,4.5-0.7,8.1-0.7,8.1h0.4c0,0,7.8-15.7,29.4-15.7c24.7,0,40.3,19.5,40.3,48
		c0,29.2-17.6,47.8-41.7,47.8c-20.5,0-28.8-16-28.8-16h-0.4c0,0,0.6,3.4,0.6,7.4v6.6h-17V111z M955.1,226.2
		c14.5,0,26.5-12,26.5-32.8c0-19.9-10.7-32.8-25.9-32.8c-13.8,0-26.5,9.6-26.5,33C929.1,209.9,937.7,226.2,955.1,226.2z"/>
	<path class="st4" d="M1021,111h17v18h-17V111z M1021,147h17v92h-17V147z"/>
	<path class="st4" d="M1067.1,215.3c0,0,10.3,10.7,26.3,10.7c7.6,0,15.2-4,15.2-11.4c0-16.9-47.2-13.4-47.2-43.3
		c0-16.7,14.9-26.1,33.2-26.1c20.1,0,29.6,10.2,29.6,10.2l-7.1,13.2c0,0-8.2-8.2-22.7-8.2c-7.6,0-15.1,3.3-15.1,11.2
		c0,16.5,47.2,12.9,47.2,43c0,15.2-13.1,26.7-33.2,26.7c-22.5,0-34.8-13.4-34.8-13.4L1067.1,215.3z"/>
</g>
<g>
	<path class="st4" d="M16.6,213.7c0,0,10.3,10.7,26.3,10.7c7.6,0,15.2-4,15.2-11.4c0-16.9-47.2-13.4-47.2-43.3
		c0-16.7,14.9-26.1,33.2-26.1c20.1,0,29.6,10.2,29.6,10.2l-7.1,13.2c0,0-8.2-8.2-22.7-8.2C36.4,158.7,29,162,29,170
		c0,16.5,47.2,12.9,47.2,43c0,15.2-13.1,26.7-33.2,26.7c-22.5,0-34.8-13.4-34.8-13.4L16.6,213.7z"/>
	<path class="st4" d="M97,146h17v11.8c0,3.6-0.5,7.2-0.5,7.2h0.4c4.4-11,17.2-21.4,31.6-21.4c15.4,0,24.5,7.4,27.6,20.4h0.4
		c5.1-11,17.6-20.7,32.5-20.7c20.7,0,30.2,12,30.2,35.4V237h-17v-54.5c0-12.9-2.7-23-16.5-23c-12.9,0-22.7,10.9-26,23.4
		c-0.9,3.8-1.5,8-1.5,12.7V237h-17v-54.5c0-12-1.9-23-16.1-23c-13.4,0-23.1,11.1-26.6,24.1c-0.9,3.6-1.3,7.8-1.3,12V237H97V146z"/>
	<path class="st4" d="M310.4,180h3.6v-1.5c0-15.1-8.3-20.1-19.9-20.1c-14.1,0-25.5,8.9-25.5,8.9l-7.2-12.9c0,0,13.3-10.9,34.3-10.9
		c23.2,0,36.3,12.7,36.3,35.9V237h-16v-8.3c0-4.2,0.1-7.7,0.1-7.7h-0.4c0,0-7.4,18.4-29.4,18.4c-15.8,0-31.2-9.6-31.2-27.9
		C255.1,181.2,295,180,310.4,180z M290.3,225.5c14.9,0,24.7-15.6,24.7-29.2V193h-4.9c-13.2,0-37.1,1.1-37.1,17.6
		C273,218,278.9,225.5,290.3,225.5z"/>
	<path class="st4" d="M358,146h17v15.6c0,3.8,0,7.4,0,7.4h0.4c4.2-14,14.9-24.2,29.1-24.2c2.4,0,4.6,0.1,4.6,0.1v17.4
		c0,0-2.4-0.5-5.1-0.5c-11.2,0-21.6,8-25.7,21.6c-1.6,5.3-2.1,10.9-2.1,16.5V237h-18V146z"/>
	<path class="st4" d="M430,161h-12v-14h13v-27h17v27h22v14h-22v40.9c0,18.3,12.5,20.7,19.2,20.7c2.5,0,3.8-0.4,3.8-0.4v15.6
		c0,0-2.4,0.4-6,0.4c-11.8,0-35-3.6-35-34.3V161z"/>
</g>
</svg>
